<svg xmlns="http://www.w3.org/2000/svg" width="1600" height="1000" viewBox="0 0 1600 1000"><defs><linearGradient id="active"><stop stop-color="#36CBFF" stop-opacity=".19"/><stop offset="1" stop-color="#AC8AFF" stop-opacity=".05"/></linearGradient><linearGradient id="lineArea" x1="0" y1="0" x2="0" y2="1"><stop stop-color="#36CBFF" stop-opacity=".18"/><stop offset="1" stop-color="#36CBFF" stop-opacity="0"/></linearGradient><linearGradient id="panelSheen" x1="0" y1="0" x2="1" y2="1"><stop stop-color="#0C1E32"/><stop offset=".6" stop-color="#0A192B"/><stop offset="1" stop-color="#091626"/></linearGradient><filter id="glow" x="-60%" y="-60%" width="220%" height="220%"><feGaussianBlur stdDeviation="3"/></filter></defs><rect x="0" y="0" width="1600" height="1000" rx="0" fill="#050D19"/><rect x="0" y="0" width="208" height="1000" rx="0" fill="url(#panelSheen)"/><line x1="208" y1="0" x2="208" y2="1000" stroke="#29435D" stroke-width="1" opacity="1"/><circle cx="30" cy="34" r="10" fill="none" stroke="#36CBFF" stroke-width="1.3" opacity="1"/><circle cx="30" cy="34" r="3" fill="#36CBFF" opacity="1"/><text x="50" y="41" fill="#EDF4FF" font-family="Noto Sans CJK SC, sans-serif" font-size="20" font-weight="600" text-anchor="start">投研工作台</text><text x="25" y="73" fill="#A6B8CE" font-family="Noto Sans CJK SC, sans-serif" font-size="12" font-weight="400" text-anchor="start">全球视角 · 证据驱动</text><path d="M26 117 L34 110 L42 117 M29 115 V124 H39 V115" stroke="#A6B8CE" stroke-width="1.7" fill="none" opacity="1" stroke-linecap="round" stroke-linejoin="round"/><text x="58" y="122" fill="#A6B8CE" font-family="Noto Sans CJK SC, sans-serif" font-size="14" font-weight="400" text-anchor="start">首页</text><rect x="27" y="175" width="3" height="6" rx="1" fill="#A6B8CE"/><rect x="33" y="169" width="3" height="12" rx="1" fill="#A6B8CE"/><rect x="39" y="172" width="3" height="9" rx="1" fill="#A6B8CE"/><text x="58" y="179" fill="#A6B8CE" font-family="Noto Sans CJK SC, sans-serif" font-size="14" font-weight="400" text-anchor="start">宏观</text><rect x="27" y="224" width="14" height="14" rx="2" fill="none" stroke="#A6B8CE" stroke-width="1"/><line x1="34" y1="224" x2="34" y2="238" stroke="#A6B8CE" stroke-width="1" opacity="1"/><line x1="27" y1="231" x2="41" y2="231" stroke="#A6B8CE" stroke-width="1" opacity="1"/><text x="58" y="236" fill="#A6B8CE" font-family="Noto Sans CJK SC, sans-serif" font-size="14" font-weight="400" text-anchor="start">行业</text><rect x="12" y="268" width="184" height="44" rx="7" fill="#103149" stroke="#36CBFF" stroke-width="0.75" opacity="0.99"/><rect x="12" y="274" width="3" height="32" rx="1" fill="#36CBFF"/><rect x="27" y="289" width="3" height="6" rx="1" fill="#36CBFF"/><rect x="33" y="283" width="3" height="12" rx="1" fill="#36CBFF"/><rect x="39" y="286" width="3" height="9" rx="1" fill="#36CBFF"/><text x="58" y="293" fill="#EDF4FF" font-family="Noto Sans CJK SC, sans-serif" font-size="14" font-weight="600" text-anchor="start">个股池</text><rect x="27" y="338" width="14" height="14" rx="2" fill="none" stroke="#A6B8CE" stroke-width="1"/><path d="M30 345 l3 3 l5 -6" stroke="#A6B8CE" stroke-width="1.4" fill="none" opacity="1" stroke-linecap="round" stroke-linejoin="round"/><text x="58" y="350" fill="#A6B8CE" font-family="Noto Sans CJK SC, sans-serif" font-size="14" font-weight="400" text-anchor="start">观察清单</text><path d="M31 394 H37 M32 394 V400 L27 409 H41 L36 400 V394" stroke="#A6B8CE" stroke-width="1.4" fill="none" opacity="1" stroke-linecap="round" stroke-linejoin="round"/><text x="58" y="407" fill="#A6B8CE" font-family="Noto Sans CJK SC, sans-serif" font-size="14" font-weight="400" text-anchor="start">验证中心</text><rect x="28" y="451" width="12" height="16" rx="2" fill="none" stroke="#A6B8CE" stroke-width="1"/><line x1="31" y1="456" x2="37" y2="456" stroke="#A6B8CE" stroke-width="1" opacity="1"/><line x1="31" y1="461" x2="37" y2="461" stroke="#A6B8CE" stroke-width="1" opacity="1"/><text x="58" y="464" fill="#A6B8CE" font-family="Noto Sans CJK SC, sans-serif" font-size="14" font-weight="400" text-anchor="start">预期证据</text><text x="25" y="824" fill="#EDF4FF" font-family="Noto Sans CJK SC, sans-serif" font-size="16" font-weight="500" text-anchor="start">深度研究</text><text x="25" y="850" fill="#A6B8CE" font-family="Noto Sans CJK SC, sans-serif" font-size="14" font-weight="400" text-anchor="start">让判断有据可查</text><path d="M0 969 L35 932 L63 945 L106 884 L132 927 L170 911 L208 958" stroke="#36CBFF" stroke-width="0.7" fill="none" opacity="0.65" stroke-linecap="round" stroke-linejoin="round"/><path d="M0 960 L35 927 L63 938 L106 882 L132 922 L170 907 L208 950" stroke="#36CBFF" stroke-width="0.7" fill="none" opacity="0.65" stroke-linecap="round" stroke-linejoin="round"/><path d="M0 951 L35 922 L63 931 L106 880 L132 917 L170 903 L208 942" stroke="#36CBFF" stroke-width="0.7" fill="none" opacity="0.65" stroke-linecap="round" stroke-linejoin="round"/><path d="M0 942 L35 917 L63 924 L106 878 L132 912 L170 899 L208 934" stroke="#36CBFF" stroke-width="0.7" fill="none" opacity="0.65" stroke-linecap="round" stroke-linejoin="round"/><path d="M0 933 L35 912 L63 917 L106 876 L132 907 L170 895 L208 926" stroke="#36CBFF" stroke-width="0.7" fill="none" opacity="0.65" stroke-linecap="round" stroke-linejoin="round"/><text x="25" y="981" fill="#A6B8CE" font-family="Noto Sans CJK SC, sans-serif" font-size="12" font-weight="400" text-anchor="start">本机研究空间</text><rect x="208" y="0" width="1392" height="72" rx="0" fill="#050D19"/><line x1="208" y1="72" x2="1600" y2="72" stroke="#29435D" stroke-width="1" opacity="1"/><rect x="240" y="18" width="456" height="36" rx="7" fill="url(#panelSheen)" stroke="#66819C" stroke-width="0.8"/><circle cx="258" cy="35" r="6" fill="none" stroke="#A6B8CE" stroke-width="1.3" opacity="1"/><line x1="262" y1="39" x2="266" y2="43" stroke="#A6B8CE" stroke-width="1.4" opacity="1"/><text x="280" y="41" fill="#A6B8CE" font-family="Noto Sans CJK SC, sans-serif" font-size="13" font-weight="400" text-anchor="start">搜索当前研究池：公司、代码、行业</text><rect x="954" y="22" width="184" height="28" rx="5" fill="#10253B" stroke="#F8C16C" stroke-width="0.7"/><text x="1046.0" y="40.5" fill="#F8C16C" font-family="Noto Sans CJK SC, sans-serif" font-size="12" font-weight="500" text-anchor="middle">设计示意 · 合成样例</text><rect x="1150" y="22" width="136" height="28" rx="5" fill="#10253B" stroke="#A6B8CE" stroke-width="0.7"/><text x="1218.0" y="40.5" fill="#A6B8CE" font-family="Noto Sans CJK SC, sans-serif" font-size="12" font-weight="500" text-anchor="middle">数据模式：模拟</text><rect x="1300" y="18" width="184" height="36" rx="6" fill="url(#panelSheen)" stroke="#66819C" stroke-width="0.8"/><text x="1315" y="41" fill="#36CBFF" font-family="Noto Sans CJK SC, sans-serif" font-size="13" font-weight="500" text-anchor="start">外观：霓虹科技</text><circle cx="1497" cy="36" r="4" fill="#36CBFF" opacity="1"/><circle cx="1515" cy="36" r="4" fill="#AC8AFF" opacity="1"/><circle cx="1533" cy="36" r="4" fill="#A6B8CE" opacity="1"/><text x="240" y="115" fill="#EDF4FF" font-family="Noto Sans CJK SC, sans-serif" font-size="25" font-weight="600" text-anchor="start">个股池 / 筛选与预览</text><text x="240" y="144" fill="#A6B8CE" font-family="Noto Sans CJK SC, sans-serif" font-size="13" font-weight="400" text-anchor="start">一张研究表完成筛选；打开详情后，返回仍在原处。</text><text x="1575" y="979" fill="#A6B8CE" font-family="Noto Sans CJK SC, sans-serif" font-size="11" font-weight="400" text-anchor="end">V1.0 待确认设计 / 非实时数据 / 非交易建议</text><rect x="240" y="168" width="1336" height="136" rx="10" fill="none" stroke="#36CBFF" stroke-width="2" opacity=".10" filter="url(#glow)"/><rect x="240" y="168" width="1336" height="136" rx="10" fill="url(#panelSheen)" stroke="#29435D" stroke-width="1"/><text x="262" y="196" fill="#A6B8CE" font-family="Noto Sans CJK SC, sans-serif" font-size="12" font-weight="400" text-anchor="start">行业</text><rect x="262" y="210" width="205" height="36" rx="6" fill="url(#panelSheen)" stroke="#66819C" stroke-width="1"/><text x="364.5" y="233.0" fill="#EDF4FF" font-family="Noto Sans CJK SC, sans-serif" font-size="13" font-weight="500" text-anchor="middle">全部行业</text><text x="487" y="196" fill="#A6B8CE" font-family="Noto Sans CJK SC, sans-serif" font-size="12" font-weight="400" text-anchor="start">细分</text><rect x="487" y="210" width="205" height="36" rx="6" fill="url(#panelSheen)" stroke="#66819C" stroke-width="1"/><text x="589.5" y="233.0" fill="#EDF4FF" font-family="Noto Sans CJK SC, sans-serif" font-size="13" font-weight="500" text-anchor="middle">全部细分</text><text x="712" y="196" fill="#A6B8CE" font-family="Noto Sans CJK SC, sans-serif" font-size="12" font-weight="400" text-anchor="start">市场</text><rect x="712" y="210" width="205" height="36" rx="6" fill="url(#panelSheen)" stroke="#66819C" stroke-width="1"/><text x="814.5" y="233.0" fill="#EDF4FF" font-family="Noto Sans CJK SC, sans-serif" font-size="13" font-weight="500" text-anchor="middle">全部市场</text><text x="937" y="196" fill="#A6B8CE" font-family="Noto Sans CJK SC, sans-serif" font-size="12" font-weight="400" text-anchor="start">数据质量</text><rect x="937" y="210" width="205" height="36" rx="6" fill="url(#panelSheen)" stroke="#66819C" stroke-width="1"/><text x="1039.5" y="233.0" fill="#EDF4FF" font-family="Noto Sans CJK SC, sans-serif" font-size="13" font-weight="500" text-anchor="middle">全部状态</text><text x="1162" y="196" fill="#A6B8CE" font-family="Noto Sans CJK SC, sans-serif" font-size="12" font-weight="400" text-anchor="start">排序</text><rect x="1162" y="210" width="205" height="36" rx="6" fill="url(#panelSheen)" stroke="#66819C" stroke-width="1"/><text x="1264.5" y="233.0" fill="#EDF4FF" font-family="Noto Sans CJK SC, sans-serif" font-size="13" font-weight="500" text-anchor="middle">默认排序</text><text x="262" y="282" fill="#A6B8CE" font-family="Noto Sans CJK SC, sans-serif" font-size="12" font-weight="400" text-anchor="start">当前样例展示 8 家 · 研究池不等于全市场</text><rect x="1404" y="210" width="150" height="36" rx="6" fill="url(#panelSheen)" stroke="#66819C" stroke-width="1"/><text x="1479.0" y="233.0" fill="#EDF4FF" font-family="Noto Sans CJK SC, sans-serif" font-size="13" font-weight="500" text-anchor="middle">更多筛选</text><rect x="240" y="324" width="1336" height="620" rx="10" fill="none" stroke="#36CBFF" stroke-width="2" opacity=".10" filter="url(#glow)"/><rect x="240" y="324" width="1336" height="620" rx="10" fill="url(#panelSheen)" stroke="#29435D" stroke-width="1"/><text x="260" y="356" fill="#EDF4FF" font-family="Noto Sans CJK SC, sans-serif" font-size="17" font-weight="600" text-anchor="start">研究池 / 表格视图</text><text x="260" y="380" fill="#A6B8CE" font-family="Noto Sans CJK SC, sans-serif" font-size="12" font-weight="400" text-anchor="start">点击公司快速预览；完整研究是独立视图</text><rect x="1290" y="342" width="108" height="36" rx="6" fill="#103149"/><text x="1306" y="365" fill="#36CBFF" font-family="Noto Sans CJK SC, sans-serif" font-size="13" font-weight="600" text-anchor="start">表格</text><text x="1422" y="365" fill="#A6B8CE" font-family="Noto Sans CJK SC, sans-serif" font-size="13" font-weight="400" text-anchor="start">卡片</text><rect x="260" y="402" width="1296" height="38" rx="5" fill="#10253B"/><text x="274" y="427" fill="#A6B8CE" font-family="Noto Sans CJK SC, sans-serif" font-size="12" font-weight="400" text-anchor="start">公司</text><text x="543.7556561085973" y="427" fill="#A6B8CE" font-family="Noto Sans CJK SC, sans-serif" font-size="12" font-weight="400" text-anchor="start">市场 / 币种</text><text x="832.425339366516" y="427" fill="#A6B8CE" font-family="Noto Sans CJK SC, sans-serif" font-size="12" font-weight="400" text-anchor="end">快照价</text><text x="973.1674208144798" y="427" fill="#A6B8CE" font-family="Noto Sans CJK SC, sans-serif" font-size="12" font-weight="400" text-anchor="end">涨跌幅</text><text x="1108.0452488687783" y="427" fill="#A6B8CE" font-family="Noto Sans CJK SC, sans-serif" font-size="12" font-weight="400" text-anchor="end">PE TTM</text><text x="1136.0452488687783" y="427" fill="#A6B8CE" font-family="Noto Sans CJK SC, sans-serif" font-size="12" font-weight="400" text-anchor="start">数据</text><text x="1282.6515837104073" y="427" fill="#A6B8CE" font-family="Noto Sans CJK SC, sans-serif" font-size="12" font-weight="400" text-anchor="start">风险</text><text x="1399.9366515837105" y="427" fill="#A6B8CE" font-family="Noto Sans CJK SC, sans-serif" font-size="12" font-weight="400" text-anchor="start">操作</text><line x1="260" y1="495" x2="1556" y2="495" stroke="#29435D" stroke-width="0.6" opacity="1"/><text x="274" y="472.5" fill="#EDF4FF" font-family="Noto Sans CJK SC, sans-serif" font-size="13" font-weight="500" text-anchor="start">示例科技 A</text><text x="543.7556561085973" y="472.5" fill="#EDF4FF" font-family="Noto Sans CJK SC, sans-serif" font-size="13" font-weight="400" text-anchor="start">A股 / CNY</text><text x="832.425339366516" y="472.5" fill="#EDF4FF" font-family="Noto Sans CJK SC, sans-serif" font-size="13" font-weight="400" text-anchor="end">88.60</text><text x="973.1674208144798" y="472.5" fill="#FF7885" font-family="Noto Sans CJK SC, sans-serif" font-size="13" font-weight="400" text-anchor="end">+1.80%</text><text x="1108.0452488687783" y="472.5" fill="#EDF4FF" font-family="Noto Sans CJK SC, sans-serif" font-size="13" font-weight="400" text-anchor="end">24.8</text><text x="1136.0452488687783" y="472.5" fill="#EDF4FF" font-family="Noto Sans CJK SC, sans-serif" font-size="13" font-weight="400" text-anchor="start">部分</text><text x="1282.6515837104073" y="472.5" fill="#F8C16C" font-family="Noto Sans CJK SC, sans-serif" font-size="13" font-weight="400" text-anchor="start">中</text><text x="1399.9366515837105" y="472.5" fill="#EDF4FF" font-family="Noto Sans CJK SC, sans-serif" font-size="13" font-weight="400" text-anchor="start">打开研究</text><rect x="260" y="495" width="1296" height="55" rx="0" fill="#10253B" opacity="0.28"/><line x1="260" y1="550" x2="1556" y2="550" stroke="#29435D" stroke-width="0.6" opacity="1"/><text x="274" y="527.5" fill="#EDF4FF" font-family="Noto Sans CJK SC, sans-serif" font-size="13" font-weight="500" text-anchor="start">示例制造 B</text><text x="543.7556561085973" y="527.5" fill="#EDF4FF" font-family="Noto Sans CJK SC, sans-serif" font-size="13" font-weight="400" text-anchor="start">A股 / CNY</text><text x="832.425339366516" y="527.5" fill="#EDF4FF" font-family="Noto Sans CJK SC, sans-serif" font-size="13" font-weight="400" text-anchor="end">34.20</text><text x="973.1674208144798" y="527.5" fill="#3FDBC0" font-family="Noto Sans CJK SC, sans-serif" font-size="13" font-weight="400" text-anchor="end">-0.90%</text><text x="1108.0452488687783" y="527.5" fill="#EDF4FF" font-family="Noto Sans CJK SC, sans-serif" font-size="13" font-weight="400" text-anchor="end">18.6</text><text x="1136.0452488687783" y="527.5" fill="#EDF4FF" font-family="Noto Sans CJK SC, sans-serif" font-size="13" font-weight="400" text-anchor="start">已记录</text><text x="1282.6515837104073" y="527.5" fill="#EDF4FF" font-family="Noto Sans CJK SC, sans-serif" font-size="13" font-weight="400" text-anchor="start">中</text><text x="1399.9366515837105" y="527.5" fill="#EDF4FF" font-family="Noto Sans CJK SC, sans-serif" font-size="13" font-weight="400" text-anchor="start">打开研究</text><line x1="260" y1="605" x2="1556" y2="605" stroke="#29435D" stroke-width="0.6" opacity="1"/><text x="274" y="582.5" fill="#EDF4FF" font-family="Noto Sans CJK SC, sans-serif" font-size="13" font-weight="500" text-anchor="start">示例医药 C</text><text x="543.7556561085973" y="582.5" fill="#EDF4FF" font-family="Noto Sans CJK SC, sans-serif" font-size="13" font-weight="400" text-anchor="start">港股 / HKD</text><text x="832.425339366516" y="582.5" fill="#EDF4FF" font-family="Noto Sans CJK SC, sans-serif" font-size="13" font-weight="400" text-anchor="end">—</text><text x="973.1674208144798" y="582.5" fill="#EDF4FF" font-family="Noto Sans CJK SC, sans-serif" font-size="13" font-weight="400" text-anchor="end">—</text><text x="1108.0452488687783" y="582.5" fill="#EDF4FF" font-family="Noto Sans CJK SC, sans-serif" font-size="13" font-weight="400" text-anchor="end">—</text><text x="1136.0452488687783" y="582.5" fill="#F8C16C" font-family="Noto Sans CJK SC, sans-serif" font-size="13" font-weight="400" text-anchor="start">未接入</text><text x="1282.6515837104073" y="582.5" fill="#EDF4FF" font-family="Noto Sans CJK SC, sans-serif" font-size="13" font-weight="400" text-anchor="start">高</text><text x="1399.9366515837105" y="582.5" fill="#EDF4FF" font-family="Noto Sans CJK SC, sans-serif" font-size="13" font-weight="400" text-anchor="start">打开研究</text><rect x="260" y="605" width="1296" height="55" rx="0" fill="#10253B" opacity="0.28"/><line x1="260" y1="660" x2="1556" y2="660" stroke="#29435D" stroke-width="0.6" opacity="1"/><text x="274" y="637.5" fill="#EDF4FF" font-family="Noto Sans CJK SC, sans-serif" font-size="13" font-weight="500" text-anchor="start">示例材料 D</text><text x="543.7556561085973" y="637.5" fill="#EDF4FF" font-family="Noto Sans CJK SC, sans-serif" font-size="13" font-weight="400" text-anchor="start">A股 / CNY</text><text x="832.425339366516" y="637.5" fill="#EDF4FF" font-family="Noto Sans CJK SC, sans-serif" font-size="13" font-weight="400" text-anchor="end">16.70</text><text x="973.1674208144798" y="637.5" fill="#FF7885" font-family="Noto Sans CJK SC, sans-serif" font-size="13" font-weight="400" text-anchor="end">+0.60%</text><text x="1108.0452488687783" y="637.5" fill="#EDF4FF" font-family="Noto Sans CJK SC, sans-serif" font-size="13" font-weight="400" text-anchor="end">12.4</text><text x="1136.0452488687783" y="637.5" fill="#EDF4FF" font-family="Noto Sans CJK SC, sans-serif" font-size="13" font-weight="400" text-anchor="start">已记录</text><text x="1282.6515837104073" y="637.5" fill="#EDF4FF" font-family="Noto Sans CJK SC, sans-serif" font-size="13" font-weight="400" text-anchor="start">中</text><text x="1399.9366515837105" y="637.5" fill="#EDF4FF" font-family="Noto Sans CJK SC, sans-serif" font-size="13" font-weight="400" text-anchor="start">打开研究</text><line x1="260" y1="715" x2="1556" y2="715" stroke="#29435D" stroke-width="0.6" opacity="1"/><text x="274" y="692.5" fill="#EDF4FF" font-family="Noto Sans CJK SC, sans-serif" font-size="13" font-weight="500" text-anchor="start">示例芯片 E</text><text x="543.7556561085973" y="692.5" fill="#EDF4FF" font-family="Noto Sans CJK SC, sans-serif" font-size="13" font-weight="400" text-anchor="start">A股 / CNY</text><text x="832.425339366516" y="692.5" fill="#EDF4FF" font-family="Noto Sans CJK SC, sans-serif" font-size="13" font-weight="400" text-anchor="end">51.30</text><text x="973.1674208144798" y="692.5" fill="#FF7885" font-family="Noto Sans CJK SC, sans-serif" font-size="13" font-weight="400" text-anchor="end">+0.40%</text><text x="1108.0452488687783" y="692.5" fill="#EDF4FF" font-family="Noto Sans CJK SC, sans-serif" font-size="13" font-weight="400" text-anchor="end">—</text><text x="1136.0452488687783" y="692.5" fill="#EDF4FF" font-family="Noto Sans CJK SC, sans-serif" font-size="13" font-weight="400" text-anchor="start">部分</text><text x="1282.6515837104073" y="692.5" fill="#EDF4FF" font-family="Noto Sans CJK SC, sans-serif" font-size="13" font-weight="400" text-anchor="start">高</text><text x="1399.9366515837105" y="692.5" fill="#EDF4FF" font-family="Noto Sans CJK SC, sans-serif" font-size="13" font-weight="400" text-anchor="start">打开研究</text><rect x="260" y="715" width="1296" height="55" rx="0" fill="#10253B" opacity="0.28"/><line x1="260" y1="770" x2="1556" y2="770" stroke="#29435D" stroke-width="0.6" opacity="1"/><text x="274" y="747.5" fill="#EDF4FF" font-family="Noto Sans CJK SC, sans-serif" font-size="13" font-weight="500" text-anchor="start">示例消费 F</text><text x="543.7556561085973" y="747.5" fill="#EDF4FF" font-family="Noto Sans CJK SC, sans-serif" font-size="13" font-weight="400" text-anchor="start">港股 / HKD</text><text x="832.425339366516" y="747.5" fill="#EDF4FF" font-family="Noto Sans CJK SC, sans-serif" font-size="13" font-weight="400" text-anchor="end">27.50</text><text x="973.1674208144798" y="747.5" fill="#3FDBC0" font-family="Noto Sans CJK SC, sans-serif" font-size="13" font-weight="400" text-anchor="end">-0.20%</text><text x="1108.0452488687783" y="747.5" fill="#EDF4FF" font-family="Noto Sans CJK SC, sans-serif" font-size="13" font-weight="400" text-anchor="end">16.9</text><text x="1136.0452488687783" y="747.5" fill="#EDF4FF" font-family="Noto Sans CJK SC, sans-serif" font-size="13" font-weight="400" text-anchor="start">部分</text><text x="1282.6515837104073" y="747.5" fill="#EDF4FF" font-family="Noto Sans CJK SC, sans-serif" font-size="13" font-weight="400" text-anchor="start">低</text><text x="1399.9366515837105" y="747.5" fill="#EDF4FF" font-family="Noto Sans CJK SC, sans-serif" font-size="13" font-weight="400" text-anchor="start">打开研究</text><line x1="260" y1="825" x2="1556" y2="825" stroke="#29435D" stroke-width="0.6" opacity="1"/><text x="274" y="802.5" fill="#EDF4FF" font-family="Noto Sans CJK SC, sans-serif" font-size="13" font-weight="500" text-anchor="start">示例工业 G</text><text x="543.7556561085973" y="802.5" fill="#EDF4FF" font-family="Noto Sans CJK SC, sans-serif" font-size="13" font-weight="400" text-anchor="start">A股 / CNY</text><text x="832.425339366516" y="802.5" fill="#EDF4FF" font-family="Noto Sans CJK SC, sans-serif" font-size="13" font-weight="400" text-anchor="end">40.20</text><text x="973.1674208144798" y="802.5" fill="#FF7885" font-family="Noto Sans CJK SC, sans-serif" font-size="13" font-weight="400" text-anchor="end">+1.10%</text><text x="1108.0452488687783" y="802.5" fill="#EDF4FF" font-family="Noto Sans CJK SC, sans-serif" font-size="13" font-weight="400" text-anchor="end">21.7</text><text x="1136.0452488687783" y="802.5" fill="#EDF4FF" font-family="Noto Sans CJK SC, sans-serif" font-size="13" font-weight="400" text-anchor="start">已记录</text><text x="1282.6515837104073" y="802.5" fill="#EDF4FF" font-family="Noto Sans CJK SC, sans-serif" font-size="13" font-weight="400" text-anchor="start">中</text><text x="1399.9366515837105" y="802.5" fill="#EDF4FF" font-family="Noto Sans CJK SC, sans-serif" font-size="13" font-weight="400" text-anchor="start">打开研究</text><rect x="260" y="825" width="1296" height="55" rx="0" fill="#10253B" opacity="0.28"/><line x1="260" y1="880" x2="1556" y2="880" stroke="#29435D" stroke-width="0.6" opacity="1"/><text x="274" y="857.5" fill="#EDF4FF" font-family="Noto Sans CJK SC, sans-serif" font-size="13" font-weight="500" text-anchor="start">示例资源 H</text><text x="543.7556561085973" y="857.5" fill="#EDF4FF" font-family="Noto Sans CJK SC, sans-serif" font-size="13" font-weight="400" text-anchor="start">A股 / CNY</text><text x="832.425339366516" y="857.5" fill="#EDF4FF" font-family="Noto Sans CJK SC, sans-serif" font-size="13" font-weight="400" text-anchor="end">12.40</text><text x="973.1674208144798" y="857.5" fill="#3FDBC0" font-family="Noto Sans CJK SC, sans-serif" font-size="13" font-weight="400" text-anchor="end">-1.00%</text><text x="1108.0452488687783" y="857.5" fill="#EDF4FF" font-family="Noto Sans CJK SC, sans-serif" font-size="13" font-weight="400" text-anchor="end">9.8</text><text x="1136.0452488687783" y="857.5" fill="#EDF4FF" font-family="Noto Sans CJK SC, sans-serif" font-size="13" font-weight="400" text-anchor="start">已记录</text><text x="1282.6515837104073" y="857.5" fill="#EDF4FF" font-family="Noto Sans CJK SC, sans-serif" font-size="13" font-weight="400" text-anchor="start">高</text><text x="1399.9366515837105" y="857.5" fill="#EDF4FF" font-family="Noto Sans CJK SC, sans-serif" font-size="13" font-weight="400" text-anchor="start">打开研究</text><text x="263" y="913" fill="#A6B8CE" font-family="Noto Sans CJK SC, sans-serif" font-size="12" font-weight="400" text-anchor="start">快照价格以市场栏所示币种计价；缺失值不补零。</text><rect x="208" y="72" width="1392" height="898" rx="0" fill="#000000" opacity="0.5"/><rect x="1020" y="72" width="580" height="928" rx="0" fill="url(#panelSheen)" stroke="#36CBFF" stroke-width="0.8"/><text x="1048" y="119" fill="#A6B8CE" font-family="Noto Sans CJK SC, sans-serif" font-size="15" font-weight="400" text-anchor="start">快速预览</text><rect x="1520" y="91" width="60" height="36" rx="6" fill="url(#panelSheen)" stroke="#66819C" stroke-width="1"/><text x="1550.0" y="114.0" fill="#EDF4FF" font-family="Noto Sans CJK SC, sans-serif" font-size="13" font-weight="500" text-anchor="middle">关闭</text><text x="1048" y="177" fill="#EDF4FF" font-family="Noto Sans CJK SC, sans-serif" font-size="26" font-weight="600" text-anchor="start">示例科技 A</text><text x="1048" y="206" fill="#A6B8CE" font-family="Noto Sans CJK SC, sans-serif" font-size="13" font-weight="400" text-anchor="start">A股 · DEMO:A01 · 半导体</text><text x="1048" y="268" fill="#EDF4FF" font-family="Noto Sans CJK SC, sans-serif" font-size="38" font-weight="600" text-anchor="start">88.60 元</text><text x="1250" y="264" fill="#FF7885" font-family="Noto Sans CJK SC, sans-serif" font-size="16" font-weight="400" text-anchor="start">+1.80%</text><text x="1048" y="295" fill="#A6B8CE" font-family="Noto Sans CJK SC, sans-serif" font-size="12" font-weight="400" text-anchor="start">价格快照：2026-09-05 15:00（样例）</text><rect x="1048" y="322" width="524" height="42" rx="6" fill="#10253B" stroke="#F8C16C" stroke-width="0.75"/><circle cx="1065" cy="343.0" r="3" fill="#F8C16C" opacity="1"/><text x="1079" y="348.0" fill="#F8C16C" font-family="Noto Sans CJK SC, sans-serif" font-size="13" font-weight="400" text-anchor="start">财务部分缺失；来源时点待核验。</text><text x="1048" y="407" fill="#A6B8CE" font-family="Noto Sans CJK SC, sans-serif" font-size="11" font-weight="400" text-anchor="start">价格 / 元</text><line x1="1092" y1="424.0" x2="1550" y2="424.0" stroke="#29435D" stroke-width="0.7" opacity="1"/><text x="1082" y="428.0" fill="#A6B8CE" font-family="Noto Sans CJK SC, sans-serif" font-size="11" font-weight="400" text-anchor="end">88.6</text><line x1="1092" y1="478.0" x2="1550" y2="478.0" stroke="#29435D" stroke-width="0.7" opacity="1"/><text x="1082" y="482.0" fill="#A6B8CE" font-family="Noto Sans CJK SC, sans-serif" font-size="11" font-weight="400" text-anchor="end">82.7</text><line x1="1092" y1="532.0" x2="1550" y2="532.0" stroke="#29435D" stroke-width="0.7" opacity="1"/><text x="1082" y="536.0" fill="#A6B8CE" font-family="Noto Sans CJK SC, sans-serif" font-size="11" font-weight="400" text-anchor="end">76.9</text><line x1="1092" y1="586.0" x2="1550" y2="586.0" stroke="#29435D" stroke-width="0.7" opacity="1"/><text x="1082" y="590.0" fill="#A6B8CE" font-family="Noto Sans CJK SC, sans-serif" font-size="11" font-weight="400" text-anchor="end">71.0</text><path d="M1092.00 586.00 L1114.90 572.19 L1137.80 578.64 L1160.70 558.39 L1183.60 549.18 L1206.50 565.75 L1229.40 535.38 L1252.30 530.77 L1275.20 541.82 L1298.10 517.89 L1321.00 501.32 L1343.90 508.68 L1366.80 493.03 L1389.70 495.80 L1412.60 470.94 L1435.50 479.23 L1458.40 463.58 L1481.30 468.18 L1504.20 437.81 L1527.10 446.09 L1550.00 424.00 L1550 586 L1092 586 Z" stroke="none" stroke-width="0" fill="url(#lineArea)" opacity="1" stroke-linecap="round" stroke-linejoin="round"/><path d="M1092.00 586.00 L1114.90 572.19 L1137.80 578.64 L1160.70 558.39 L1183.60 549.18 L1206.50 565.75 L1229.40 535.38 L1252.30 530.77 L1275.20 541.82 L1298.10 517.89 L1321.00 501.32 L1343.90 508.68 L1366.80 493.03 L1389.70 495.80 L1412.60 470.94 L1435.50 479.23 L1458.40 463.58 L1481.30 468.18 L1504.20 437.81 L1527.10 446.09 L1550.00 424.00" fill="none" stroke="#36CBFF" stroke-width="5" opacity=".16" filter="url(#glow)"/><path d="M1092.00 586.00 L1114.90 572.19 L1137.80 578.64 L1160.70 558.39 L1183.60 549.18 L1206.50 565.75 L1229.40 535.38 L1252.30 530.77 L1275.20 541.82 L1298.10 517.89 L1321.00 501.32 L1343.90 508.68 L1366.80 493.03 L1389.70 495.80 L1412.60 470.94 L1435.50 479.23 L1458.40 463.58 L1481.30 468.18 L1504.20 437.81 L1527.10 446.09 L1550.00 424.00" stroke="#36CBFF" stroke-width="2.2" fill="none" opacity="1" stroke-linecap="round" stroke-linejoin="round"/><circle cx="1550.0" cy="424.0" r="3" fill="#36CBFF" opacity="1"/><text x="1092.0" y="610" fill="#A6B8CE" font-family="Noto Sans CJK SC, sans-serif" font-size="11" font-weight="400" text-anchor="start">样例起点</text><text x="1321.0" y="610" fill="#A6B8CE" font-family="Noto Sans CJK SC, sans-serif" font-size="11" font-weight="400" text-anchor="middle">样例中段</text><text x="1550.0" y="610" fill="#A6B8CE" font-family="Noto Sans CJK SC, sans-serif" font-size="11" font-weight="400" text-anchor="end">样例终点</text><text x="1048" y="670" fill="#EDF4FF" font-family="Noto Sans CJK SC, sans-serif" font-size="16" font-weight="600" text-anchor="start">研究摘要</text><text x="1048" y="700" fill="#A6B8CE" font-family="Noto Sans CJK SC, sans-serif" font-size="14" font-weight="400" text-anchor="start">设备验证与订单兑现是主要跟踪变量；现金流仍需补证。</text><rect x="1048" y="864" width="250" height="36" rx="6" fill="#36CBFF"/><text x="1173.0" y="887.0" fill="#041220" font-family="Noto Sans CJK SC, sans-serif" font-size="13" font-weight="500" text-anchor="middle">打开完整研究</text><rect x="1312" y="864" width="250" height="36" rx="6" fill="url(#panelSheen)" stroke="#66819C" stroke-width="1"/><text x="1437.0" y="887.0" fill="#EDF4FF" font-family="Noto Sans CJK SC, sans-serif" font-size="13" font-weight="500" text-anchor="middle">添加观察</text></svg>