<svg xmlns="http://www.w3.org/2000/svg" width="1600" height="1000" viewBox="0 0 1600 1000"><defs><linearGradient id="active"><stop stop-color="#36CBFF" stop-opacity=".19"/><stop offset="1" stop-color="#AC8AFF" stop-opacity=".05"/></linearGradient><linearGradient id="lineArea" x1="0" y1="0" x2="0" y2="1"><stop stop-color="#36CBFF" stop-opacity=".18"/><stop offset="1" stop-color="#36CBFF" stop-opacity="0"/></linearGradient><linearGradient id="panelSheen" x1="0" y1="0" x2="1" y2="1"><stop stop-color="#0C1E32"/><stop offset=".6" stop-color="#0A192B"/><stop offset="1" stop-color="#091626"/></linearGradient><filter id="glow" x="-60%" y="-60%" width="220%" height="220%"><feGaussianBlur stdDeviation="3"/></filter></defs><rect x="0" y="0" width="1600" height="1000" rx="0" fill="#050D19"/><rect x="0" y="0" width="208" height="1000" rx="0" fill="url(#panelSheen)"/><line x1="208" y1="0" x2="208" y2="1000" stroke="#29435D" stroke-width="1" opacity="1"/><circle cx="30" cy="34" r="10" fill="none" stroke="#36CBFF" stroke-width="1.3" opacity="1"/><circle cx="30" cy="34" r="3" fill="#36CBFF" opacity="1"/><text x="50" y="41" fill="#EDF4FF" font-family="Noto Sans CJK SC, sans-serif" font-size="20" font-weight="600" text-anchor="start">投研工作台</text><text x="25" y="73" fill="#A6B8CE" font-family="Noto Sans CJK SC, sans-serif" font-size="12" font-weight="400" text-anchor="start">全球视角 · 证据驱动</text><path d="M26 117 L34 110 L42 117 M29 115 V124 H39 V115" stroke="#A6B8CE" stroke-width="1.7" fill="none" opacity="1" stroke-linecap="round" stroke-linejoin="round"/><text x="58" y="122" fill="#A6B8CE" font-family="Noto Sans CJK SC, sans-serif" font-size="14" font-weight="400" text-anchor="start">首页</text><rect x="27" y="175" width="3" height="6" rx="1" fill="#A6B8CE"/><rect x="33" y="169" width="3" height="12" rx="1" fill="#A6B8CE"/><rect x="39" y="172" width="3" height="9" rx="1" fill="#A6B8CE"/><text x="58" y="179" fill="#A6B8CE" font-family="Noto Sans CJK SC, sans-serif" font-size="14" font-weight="400" text-anchor="start">宏观</text><rect x="27" y="224" width="14" height="14" rx="2" fill="none" stroke="#A6B8CE" stroke-width="1"/><line x1="34" y1="224" x2="34" y2="238" stroke="#A6B8CE" stroke-width="1" opacity="1"/><line x1="27" y1="231" x2="41" y2="231" stroke="#A6B8CE" stroke-width="1" opacity="1"/><text x="58" y="236" fill="#A6B8CE" font-family="Noto Sans CJK SC, sans-serif" font-size="14" font-weight="400" text-anchor="start">行业</text><rect x="12" y="268" width="184" height="44" rx="7" fill="#103149" stroke="#36CBFF" stroke-width="0.75" opacity="0.99"/><rect x="12" y="274" width="3" height="32" rx="1" fill="#36CBFF"/><rect x="27" y="289" width="3" height="6" rx="1" fill="#36CBFF"/><rect x="33" y="283" width="3" height="12" rx="1" fill="#36CBFF"/><rect x="39" y="286" width="3" height="9" rx="1" fill="#36CBFF"/><text x="58" y="293" fill="#EDF4FF" font-family="Noto Sans CJK SC, sans-serif" font-size="14" font-weight="600" text-anchor="start">个股池</text><rect x="27" y="338" width="14" height="14" rx="2" fill="none" stroke="#A6B8CE" stroke-width="1"/><path d="M30 345 l3 3 l5 -6" stroke="#A6B8CE" stroke-width="1.4" fill="none" opacity="1" stroke-linecap="round" stroke-linejoin="round"/><text x="58" y="350" fill="#A6B8CE" font-family="Noto Sans CJK SC, sans-serif" font-size="14" font-weight="400" text-anchor="start">观察清单</text><path d="M31 394 H37 M32 394 V400 L27 409 H41 L36 400 V394" stroke="#A6B8CE" stroke-width="1.4" fill="none" opacity="1" stroke-linecap="round" stroke-linejoin="round"/><text x="58" y="407" fill="#A6B8CE" font-family="Noto Sans CJK SC, sans-serif" font-size="14" font-weight="400" text-anchor="start">验证中心</text><rect x="28" y="451" width="12" height="16" rx="2" fill="none" stroke="#A6B8CE" stroke-width="1"/><line x1="31" y1="456" x2="37" y2="456" stroke="#A6B8CE" stroke-width="1" opacity="1"/><line x1="31" y1="461" x2="37" y2="461" stroke="#A6B8CE" stroke-width="1" opacity="1"/><text x="58" y="464" fill="#A6B8CE" font-family="Noto Sans CJK SC, sans-serif" font-size="14" font-weight="400" text-anchor="start">预期证据</text><text x="25" y="824" fill="#EDF4FF" font-family="Noto Sans CJK SC, sans-serif" font-size="16" font-weight="500" text-anchor="start">深度研究</text><text x="25" y="850" fill="#A6B8CE" font-family="Noto Sans CJK SC, sans-serif" font-size="14" font-weight="400" text-anchor="start">让判断有据可查</text><path d="M0 969 L35 932 L63 945 L106 884 L132 927 L170 911 L208 958" stroke="#36CBFF" stroke-width="0.7" fill="none" opacity="0.65" stroke-linecap="round" stroke-linejoin="round"/><path d="M0 960 L35 927 L63 938 L106 882 L132 922 L170 907 L208 950" stroke="#36CBFF" stroke-width="0.7" fill="none" opacity="0.65" stroke-linecap="round" stroke-linejoin="round"/><path d="M0 951 L35 922 L63 931 L106 880 L132 917 L170 903 L208 942" stroke="#36CBFF" stroke-width="0.7" fill="none" opacity="0.65" stroke-linecap="round" stroke-linejoin="round"/><path d="M0 942 L35 917 L63 924 L106 878 L132 912 L170 899 L208 934" stroke="#36CBFF" stroke-width="0.7" fill="none" opacity="0.65" stroke-linecap="round" stroke-linejoin="round"/><path d="M0 933 L35 912 L63 917 L106 876 L132 907 L170 895 L208 926" stroke="#36CBFF" stroke-width="0.7" fill="none" opacity="0.65" stroke-linecap="round" stroke-linejoin="round"/><text x="25" y="981" fill="#A6B8CE" font-family="Noto Sans CJK SC, sans-serif" font-size="12" font-weight="400" text-anchor="start">本机研究空间</text><rect x="208" y="0" width="1392" height="72" rx="0" fill="#050D19"/><line x1="208" y1="72" x2="1600" y2="72" stroke="#29435D" stroke-width="1" opacity="1"/><rect x="240" y="18" width="456" height="36" rx="7" fill="url(#panelSheen)" stroke="#66819C" stroke-width="0.8"/><circle cx="258" cy="35" r="6" fill="none" stroke="#A6B8CE" stroke-width="1.3" opacity="1"/><line x1="262" y1="39" x2="266" y2="43" stroke="#A6B8CE" stroke-width="1.4" opacity="1"/><text x="280" y="41" fill="#A6B8CE" font-family="Noto Sans CJK SC, sans-serif" font-size="13" font-weight="400" text-anchor="start">搜索当前研究池：公司、代码、行业</text><rect x="954" y="22" width="184" height="28" rx="5" fill="#10253B" stroke="#F8C16C" stroke-width="0.7"/><text x="1046.0" y="40.5" fill="#F8C16C" font-family="Noto Sans CJK SC, sans-serif" font-size="12" font-weight="500" text-anchor="middle">设计示意 · 合成样例</text><rect x="1150" y="22" width="136" height="28" rx="5" fill="#10253B" stroke="#A6B8CE" stroke-width="0.7"/><text x="1218.0" y="40.5" fill="#A6B8CE" font-family="Noto Sans CJK SC, sans-serif" font-size="12" font-weight="500" text-anchor="middle">数据模式：模拟</text><rect x="1300" y="18" width="184" height="36" rx="6" fill="url(#panelSheen)" stroke="#66819C" stroke-width="0.8"/><text x="1315" y="41" fill="#36CBFF" font-family="Noto Sans CJK SC, sans-serif" font-size="13" font-weight="500" text-anchor="start">外观：霓虹科技</text><circle cx="1497" cy="36" r="4" fill="#36CBFF" opacity="1"/><circle cx="1515" cy="36" r="4" fill="#AC8AFF" opacity="1"/><circle cx="1533" cy="36" r="4" fill="#A6B8CE" opacity="1"/><text x="240" y="115" fill="#EDF4FF" font-family="Noto Sans CJK SC, sans-serif" font-size="25" font-weight="600" text-anchor="start">个股详情 / 研究概览</text><text x="240" y="144" fill="#A6B8CE" font-family="Noto Sans CJK SC, sans-serif" font-size="13" font-weight="400" text-anchor="start">公司身份、时点和关键限制固定可见；主题切换不改变内容与所在标签。</text><text x="1575" y="979" fill="#A6B8CE" font-family="Noto Sans CJK SC, sans-serif" font-size="11" font-weight="400" text-anchor="end">V1.0 待确认设计 / 非实时数据 / 非交易建议</text><text x="240" y="202" fill="#EDF4FF" font-family="Noto Sans CJK SC, sans-serif" font-size="26" font-weight="600" text-anchor="start">示例科技 A</text><text x="416" y="199" fill="#A6B8CE" font-family="Noto Sans CJK SC, sans-serif" font-size="13" font-weight="400" text-anchor="start">A股 · DEMO:A01 · 半导体 / 设备</text><rect x="1230" y="174" width="154" height="36" rx="6" fill="url(#panelSheen)" stroke="#66819C" stroke-width="1"/><text x="1307.0" y="197.0" fill="#EDF4FF" font-family="Noto Sans CJK SC, sans-serif" font-size="13" font-weight="500" text-anchor="middle">返回筛选结果</text><rect x="1400" y="174" width="176" height="36" rx="6" fill="#36CBFF"/><text x="1488.0" y="197.0" fill="#041220" font-family="Noto Sans CJK SC, sans-serif" font-size="13" font-weight="500" text-anchor="middle">添加观察项</text><text x="240" y="252" fill="#EDF4FF" font-family="Noto Sans CJK SC, sans-serif" font-size="33" font-weight="600" text-anchor="start">88.60</text><text x="352" y="251" fill="#A6B8CE" font-family="Noto Sans CJK SC, sans-serif" font-size="14" font-weight="400" text-anchor="start">元</text><text x="398" y="251" fill="#FF7885" font-family="Noto Sans CJK SC, sans-serif" font-size="19" font-weight="600" text-anchor="start">+1.80%</text><text x="543" y="247" fill="#A6B8CE" font-family="Noto Sans CJK SC, sans-serif" font-size="13" font-weight="400" text-anchor="start">价格快照：2026-09-05 15:00（样例）</text><rect x="1138" y="230" width="160" height="28" rx="5" fill="#10253B" stroke="#A6B8CE" stroke-width="0.7"/><text x="1218.0" y="248.5" fill="#A6B8CE" font-family="Noto Sans CJK SC, sans-serif" font-size="12" font-weight="500" text-anchor="middle">PE TTM 24.8</text><rect x="1312" y="230" width="264" height="28" rx="5" fill="#10253B" stroke="#F8C16C" stroke-width="0.7"/><text x="1444.0" y="248.5" fill="#F8C16C" font-family="Noto Sans CJK SC, sans-serif" font-size="12" font-weight="500" text-anchor="middle">财务：部分信息</text><rect x="240" y="275" width="1336" height="42" rx="6" fill="#10253B" stroke="#F8C16C" stroke-width="0.75"/><circle cx="257" cy="296.0" r="3" fill="#F8C16C" opacity="1"/><text x="271" y="301.0" fill="#F8C16C" font-family="Noto Sans CJK SC, sans-serif" font-size="13" font-weight="400" text-anchor="start">当前限制：部分现金流字段缺失；估值历史百分位尚未接入。详细来源在相关指标旁可查。</text><text x="256" y="359" fill="#A6B8CE" font-family="Noto Sans CJK SC, sans-serif" font-size="13" font-weight="400" text-anchor="start">研究概览</text><text x="428" y="359" fill="#A6B8CE" font-family="Noto Sans CJK SC, sans-serif" font-size="13" font-weight="400" text-anchor="start">经营与财务</text><rect x="584" y="336" width="164" height="36" rx="6" fill="#103149"/><text x="600" y="359" fill="#36CBFF" font-family="Noto Sans CJK SC, sans-serif" font-size="13" font-weight="600" text-anchor="start">价格与估值</text><text x="772" y="359" fill="#A6B8CE" font-family="Noto Sans CJK SC, sans-serif" font-size="13" font-weight="400" text-anchor="start">预期与验证</text><text x="944" y="359" fill="#A6B8CE" font-family="Noto Sans CJK SC, sans-serif" font-size="13" font-weight="400" text-anchor="start">证据与复盘</text><line x1="240" y1="379" x2="1576" y2="379" stroke="#29435D" stroke-width="1" opacity="1"/><rect x="240" y="400" width="856" height="544" rx="10" fill="none" stroke="#36CBFF" stroke-width="2" opacity=".10" filter="url(#glow)"/><rect x="240" y="400" width="856" height="544" rx="10" fill="url(#panelSheen)" stroke="#29435D" stroke-width="1"/><text x="260" y="432" fill="#EDF4FF" font-family="Noto Sans CJK SC, sans-serif" font-size="17" font-weight="600" text-anchor="start">价格历史 / 已生成序列</text><text x="260" y="456" fill="#A6B8CE" font-family="Noto Sans CJK SC, sans-serif" font-size="12" font-weight="400" text-anchor="start">收盘价以折线展示；没有 OHLC 时不绘制 K 线</text><rect x="764" y="418" width="127" height="36" rx="6" fill="#103149"/><text x="780" y="441" fill="#36CBFF" font-family="Noto Sans CJK SC, sans-serif" font-size="13" font-weight="600" text-anchor="start">60 日</text><text x="915" y="441" fill="#A6B8CE" font-family="Noto Sans CJK SC, sans-serif" font-size="13" font-weight="400" text-anchor="start">全部可用</text><text x="260" y="511" fill="#A6B8CE" font-family="Noto Sans CJK SC, sans-serif" font-size="11" font-weight="400" text-anchor="start">价格 / 元</text><line x1="304" y1="528.0" x2="1058" y2="528.0" stroke="#29435D" stroke-width="0.7" opacity="1"/><text x="294" y="532.0" fill="#A6B8CE" font-family="Noto Sans CJK SC, sans-serif" font-size="11" font-weight="400" text-anchor="end">88.6</text><line x1="304" y1="630.0" x2="1058" y2="630.0" stroke="#29435D" stroke-width="0.7" opacity="1"/><text x="294" y="634.0" fill="#A6B8CE" font-family="Noto Sans CJK SC, sans-serif" font-size="11" font-weight="400" text-anchor="end">82.7</text><line x1="304" y1="732.0" x2="1058" y2="732.0" stroke="#29435D" stroke-width="0.7" opacity="1"/><text x="294" y="736.0" fill="#A6B8CE" font-family="Noto Sans CJK SC, sans-serif" font-size="11" font-weight="400" text-anchor="end">76.9</text><line x1="304" y1="834.0" x2="1058" y2="834.0" stroke="#29435D" stroke-width="0.7" opacity="1"/><text x="294" y="838.0" fill="#A6B8CE" font-family="Noto Sans CJK SC, sans-serif" font-size="11" font-weight="400" text-anchor="end">71.0</text><path d="M304.00 834.00 L341.70 807.92 L379.40 820.09 L417.10 781.84 L454.80 764.45 L492.50 795.75 L530.20 738.38 L567.90 729.68 L605.60 750.55 L643.30 705.34 L681.00 674.05 L718.70 687.95 L756.40 658.40 L794.10 663.61 L831.80 616.67 L869.50 632.32 L907.20 602.76 L944.90 611.45 L982.60 554.08 L1020.30 569.73 L1058.00 528.00 L1058 834 L304 834 Z" stroke="none" stroke-width="0" fill="url(#lineArea)" opacity="1" stroke-linecap="round" stroke-linejoin="round"/><path d="M304.00 834.00 L341.70 807.92 L379.40 820.09 L417.10 781.84 L454.80 764.45 L492.50 795.75 L530.20 738.38 L567.90 729.68 L605.60 750.55 L643.30 705.34 L681.00 674.05 L718.70 687.95 L756.40 658.40 L794.10 663.61 L831.80 616.67 L869.50 632.32 L907.20 602.76 L944.90 611.45 L982.60 554.08 L1020.30 569.73 L1058.00 528.00" fill="none" stroke="#36CBFF" stroke-width="5" opacity=".16" filter="url(#glow)"/><path d="M304.00 834.00 L341.70 807.92 L379.40 820.09 L417.10 781.84 L454.80 764.45 L492.50 795.75 L530.20 738.38 L567.90 729.68 L605.60 750.55 L643.30 705.34 L681.00 674.05 L718.70 687.95 L756.40 658.40 L794.10 663.61 L831.80 616.67 L869.50 632.32 L907.20 602.76 L944.90 611.45 L982.60 554.08 L1020.30 569.73 L1058.00 528.00" stroke="#36CBFF" stroke-width="2.2" fill="none" opacity="1" stroke-linecap="round" stroke-linejoin="round"/><circle cx="1058.0" cy="528.0" r="3" fill="#36CBFF" opacity="1"/><text x="304.0" y="858" fill="#A6B8CE" font-family="Noto Sans CJK SC, sans-serif" font-size="11" font-weight="400" text-anchor="start">样例起点</text><text x="681.0" y="858" fill="#A6B8CE" font-family="Noto Sans CJK SC, sans-serif" font-size="11" font-weight="400" text-anchor="middle">样例中段</text><text x="1058.0" y="858" fill="#A6B8CE" font-family="Noto Sans CJK SC, sans-serif" font-size="11" font-weight="400" text-anchor="end">样例终点</text><text x="264" y="916" fill="#A6B8CE" font-family="Noto Sans CJK SC, sans-serif" font-size="12" font-weight="400" text-anchor="start">事件标记只表示时间位置，不表示因果；缺失区间断开。</text><rect x="1116" y="400" width="460" height="350" rx="10" fill="none" stroke="#36CBFF" stroke-width="2" opacity=".10" filter="url(#glow)"/><rect x="1116" y="400" width="460" height="350" rx="10" fill="url(#panelSheen)" stroke="#29435D" stroke-width="1"/><text x="1136" y="432" fill="#EDF4FF" font-family="Noto Sans CJK SC, sans-serif" font-size="17" font-weight="600" text-anchor="start">估值快照</text><text x="1136" y="456" fill="#A6B8CE" font-family="Noto Sans CJK SC, sans-serif" font-size="12" font-weight="400" text-anchor="start">当前估值与历史估值能力分开</text><rect x="1136" y="474" width="420" height="38" rx="5" fill="#10253B"/><text x="1150" y="499" fill="#A6B8CE" font-family="Noto Sans CJK SC, sans-serif" font-size="12" font-weight="400" text-anchor="start">指标</text><text x="1542.0" y="499" fill="#A6B8CE" font-family="Noto Sans CJK SC, sans-serif" font-size="12" font-weight="400" text-anchor="end">数值 / 状态</text><line x1="1136" y1="557" x2="1556" y2="557" stroke="#29435D" stroke-width="0.6" opacity="1"/><text x="1150" y="539.5" fill="#EDF4FF" font-family="Noto Sans CJK SC, sans-serif" font-size="13" font-weight="500" text-anchor="start">PE TTM</text><text x="1542.0" y="539.5" fill="#EDF4FF" font-family="Noto Sans CJK SC, sans-serif" font-size="13" font-weight="400" text-anchor="end">24.8</text><rect x="1136" y="557" width="420" height="45" rx="0" fill="#10253B" opacity="0.28"/><line x1="1136" y1="602" x2="1556" y2="602" stroke="#29435D" stroke-width="0.6" opacity="1"/><text x="1150" y="584.5" fill="#EDF4FF" font-family="Noto Sans CJK SC, sans-serif" font-size="13" font-weight="500" text-anchor="start">PB</text><text x="1542.0" y="584.5" fill="#EDF4FF" font-family="Noto Sans CJK SC, sans-serif" font-size="13" font-weight="400" text-anchor="end">3.2</text><line x1="1136" y1="647" x2="1556" y2="647" stroke="#29435D" stroke-width="0.6" opacity="1"/><text x="1150" y="629.5" fill="#EDF4FF" font-family="Noto Sans CJK SC, sans-serif" font-size="13" font-weight="500" text-anchor="start">PS</text><text x="1542.0" y="629.5" fill="#EDF4FF" font-family="Noto Sans CJK SC, sans-serif" font-size="13" font-weight="400" text-anchor="end">4.7</text><rect x="1136" y="647" width="420" height="45" rx="0" fill="#10253B" opacity="0.28"/><line x1="1136" y1="692" x2="1556" y2="692" stroke="#29435D" stroke-width="0.6" opacity="1"/><text x="1150" y="674.5" fill="#EDF4FF" font-family="Noto Sans CJK SC, sans-serif" font-size="13" font-weight="500" text-anchor="start">股息率</text><text x="1542.0" y="674.5" fill="#EDF4FF" font-family="Noto Sans CJK SC, sans-serif" font-size="13" font-weight="400" text-anchor="end">—</text><rect x="1136" y="704" width="420" height="30" rx="6" fill="#10253B" stroke="#F8C16C" stroke-width="0.75"/><circle cx="1153" cy="719.0" r="3" fill="#F8C16C" opacity="1"/><text x="1167" y="724.0" fill="#F8C16C" font-family="Noto Sans CJK SC, sans-serif" font-size="13" font-weight="400" text-anchor="start">历史百分位尚未接入</text><rect x="1116" y="770" width="460" height="174" rx="10" fill="none" stroke="#36CBFF" stroke-width="2" opacity=".10" filter="url(#glow)"/><rect x="1116" y="770" width="460" height="174" rx="10" fill="url(#panelSheen)" stroke="#29435D" stroke-width="1"/><text x="1136" y="802" fill="#EDF4FF" font-family="Noto Sans CJK SC, sans-serif" font-size="17" font-weight="600" text-anchor="start">市场与单位</text><text x="1140" y="842" fill="#A6B8CE" font-family="Noto Sans CJK SC, sans-serif" font-size="14" font-weight="400" text-anchor="start">价格保留币种；不同会计口径、不同报告期不直接横向排名。</text></svg>