<svg xmlns="http://www.w3.org/2000/svg" width="1600" height="1000" viewBox="0 0 1600 1000"><defs><linearGradient id="active"><stop stop-color="#7DBBFF" stop-opacity=".19"/><stop offset="1" stop-color="#B2A2E8" stop-opacity=".05"/></linearGradient><linearGradient id="lineArea" x1="0" y1="0" x2="0" y2="1"><stop stop-color="#7DBBFF" stop-opacity=".18"/><stop offset="1" stop-color="#7DBBFF" stop-opacity="0"/></linearGradient><linearGradient id="panelSheen" x1="0" y1="0" x2="1" y2="1"><stop stop-color="#0C1E32"/><stop offset=".6" stop-color="#0A192B"/><stop offset="1" stop-color="#091626"/></linearGradient><filter id="glow" x="-60%" y="-60%" width="220%" height="220%"><feGaussianBlur stdDeviation="3"/></filter></defs><rect x="0" y="0" width="1600" height="1000" rx="0" fill="#111720"/><rect x="0" y="0" width="208" height="1000" rx="0" fill="#1A2330"/><line x1="208" y1="0" x2="208" y2="1000" stroke="#3F4C60" stroke-width="1" opacity="1"/><circle cx="30" cy="34" r="10" fill="none" stroke="#7DBBFF" stroke-width="1.3" opacity="1"/><circle cx="30" cy="34" r="3" fill="#7DBBFF" opacity="1"/><text x="50" y="41" fill="#F0F4F8" font-family="Noto Sans CJK SC, sans-serif" font-size="20" font-weight="600" text-anchor="start">投研工作台</text><text x="25" y="73" fill="#BAC5D4" font-family="Noto Sans CJK SC, sans-serif" font-size="12" font-weight="400" text-anchor="start">全球视角 · 证据驱动</text><path d="M26 117 L34 110 L42 117 M29 115 V124 H39 V115" stroke="#BAC5D4" stroke-width="1.7" fill="none" opacity="1" stroke-linecap="round" stroke-linejoin="round"/><text x="58" y="122" fill="#BAC5D4" font-family="Noto Sans CJK SC, sans-serif" font-size="14" font-weight="400" text-anchor="start">首页</text><rect x="12" y="154" width="184" height="44" rx="7" fill="#273D55" stroke="#7DBBFF" stroke-width="0.75" opacity="0.99"/><rect x="12" y="160" width="3" height="32" rx="1" fill="#7DBBFF"/><rect x="27" y="175" width="3" height="6" rx="1" fill="#7DBBFF"/><rect x="33" y="169" width="3" height="12" rx="1" fill="#7DBBFF"/><rect x="39" y="172" width="3" height="9" rx="1" fill="#7DBBFF"/><text x="58" y="179" fill="#F0F4F8" font-family="Noto Sans CJK SC, sans-serif" font-size="14" font-weight="600" text-anchor="start">宏观</text><rect x="27" y="224" width="14" height="14" rx="2" fill="none" stroke="#BAC5D4" stroke-width="1"/><line x1="34" y1="224" x2="34" y2="238" stroke="#BAC5D4" stroke-width="1" opacity="1"/><line x1="27" y1="231" x2="41" y2="231" stroke="#BAC5D4" stroke-width="1" opacity="1"/><text x="58" y="236" fill="#BAC5D4" font-family="Noto Sans CJK SC, sans-serif" font-size="14" font-weight="400" text-anchor="start">行业</text><rect x="27" y="289" width="3" height="6" rx="1" fill="#BAC5D4"/><rect x="33" y="283" width="3" height="12" rx="1" fill="#BAC5D4"/><rect x="39" y="286" width="3" height="9" rx="1" fill="#BAC5D4"/><text x="58" y="293" fill="#BAC5D4" font-family="Noto Sans CJK SC, sans-serif" font-size="14" font-weight="400" text-anchor="start">个股池</text><rect x="27" y="338" width="14" height="14" rx="2" fill="none" stroke="#BAC5D4" stroke-width="1"/><path d="M30 345 l3 3 l5 -6" stroke="#BAC5D4" stroke-width="1.4" fill="none" opacity="1" stroke-linecap="round" stroke-linejoin="round"/><text x="58" y="350" fill="#BAC5D4" font-family="Noto Sans CJK SC, sans-serif" font-size="14" font-weight="400" text-anchor="start">观察清单</text><path d="M31 394 H37 M32 394 V400 L27 409 H41 L36 400 V394" stroke="#BAC5D4" stroke-width="1.4" fill="none" opacity="1" stroke-linecap="round" stroke-linejoin="round"/><text x="58" y="407" fill="#BAC5D4" font-family="Noto Sans CJK SC, sans-serif" font-size="14" font-weight="400" text-anchor="start">验证中心</text><rect x="28" y="451" width="12" height="16" rx="2" fill="none" stroke="#BAC5D4" stroke-width="1"/><line x1="31" y1="456" x2="37" y2="456" stroke="#BAC5D4" stroke-width="1" opacity="1"/><line x1="31" y1="461" x2="37" y2="461" stroke="#BAC5D4" stroke-width="1" opacity="1"/><text x="58" y="464" fill="#BAC5D4" font-family="Noto Sans CJK SC, sans-serif" font-size="14" font-weight="400" text-anchor="start">预期证据</text><text x="25" y="824" fill="#F0F4F8" font-family="Noto Sans CJK SC, sans-serif" font-size="16" font-weight="500" text-anchor="start">深度研究</text><text x="25" y="850" fill="#BAC5D4" font-family="Noto Sans CJK SC, sans-serif" font-size="14" font-weight="400" text-anchor="start">让判断有据可查</text><path d="M0 969 L35 932 L63 945 L106 884 L132 927 L170 911 L208 958" stroke="#7DBBFF" stroke-width="0.7" fill="none" opacity="0.05" stroke-linecap="round" stroke-linejoin="round"/><path d="M0 960 L35 927 L63 938 L106 882 L132 922 L170 907 L208 950" stroke="#7DBBFF" stroke-width="0.7" fill="none" opacity="0.05" stroke-linecap="round" stroke-linejoin="round"/><path d="M0 951 L35 922 L63 931 L106 880 L132 917 L170 903 L208 942" stroke="#7DBBFF" stroke-width="0.7" fill="none" opacity="0.05" stroke-linecap="round" stroke-linejoin="round"/><path d="M0 942 L35 917 L63 924 L106 878 L132 912 L170 899 L208 934" stroke="#7DBBFF" stroke-width="0.7" fill="none" opacity="0.05" stroke-linecap="round" stroke-linejoin="round"/><path d="M0 933 L35 912 L63 917 L106 876 L132 907 L170 895 L208 926" stroke="#7DBBFF" stroke-width="0.7" fill="none" opacity="0.05" stroke-linecap="round" stroke-linejoin="round"/><text x="25" y="981" fill="#BAC5D4" font-family="Noto Sans CJK SC, sans-serif" font-size="12" font-weight="400" text-anchor="start">本机研究空间</text><rect x="208" y="0" width="1392" height="72" rx="0" fill="#111720"/><line x1="208" y1="72" x2="1600" y2="72" stroke="#3F4C60" stroke-width="1" opacity="1"/><rect x="240" y="18" width="456" height="36" rx="7" fill="#1A2330" stroke="#7889A1" stroke-width="0.8"/><circle cx="258" cy="35" r="6" fill="none" stroke="#BAC5D4" stroke-width="1.3" opacity="1"/><line x1="262" y1="39" x2="266" y2="43" stroke="#BAC5D4" stroke-width="1.4" opacity="1"/><text x="280" y="41" fill="#BAC5D4" font-family="Noto Sans CJK SC, sans-serif" font-size="13" font-weight="400" text-anchor="start">搜索当前研究池：公司、代码、行业</text><rect x="954" y="22" width="184" height="28" rx="5" fill="#253140" stroke="#EFC27A" stroke-width="0.7"/><text x="1046.0" y="40.5" fill="#EFC27A" font-family="Noto Sans CJK SC, sans-serif" font-size="12" font-weight="500" text-anchor="middle">设计示意 · 合成样例</text><rect x="1150" y="22" width="136" height="28" rx="5" fill="#253140" stroke="#BAC5D4" stroke-width="0.7"/><text x="1218.0" y="40.5" fill="#BAC5D4" font-family="Noto Sans CJK SC, sans-serif" font-size="12" font-weight="500" text-anchor="middle">数据模式：模拟</text><rect x="1300" y="18" width="184" height="36" rx="6" fill="#1A2330" stroke="#7889A1" stroke-width="0.8"/><text x="1315" y="41" fill="#7DBBFF" font-family="Noto Sans CJK SC, sans-serif" font-size="13" font-weight="500" text-anchor="start">外观：深色专业</text><circle cx="1497" cy="36" r="4" fill="#7DBBFF" opacity="1"/><circle cx="1515" cy="36" r="4" fill="#B2A2E8" opacity="1"/><circle cx="1533" cy="36" r="4" fill="#BAC5D4" opacity="1"/><text x="240" y="115" fill="#F0F4F8" font-family="Noto Sans CJK SC, sans-serif" font-size="25" font-weight="600" text-anchor="start">宏观 / 指标观察</text><text x="240" y="144" fill="#BAC5D4" font-family="Noto Sans CJK SC, sans-serif" font-size="13" font-weight="400" text-anchor="start">观测值、时点和来源先行；模型输出与历史趋势独立准入。</text><text x="1575" y="979" fill="#BAC5D4" font-family="Noto Sans CJK SC, sans-serif" font-size="11" font-weight="400" text-anchor="end">V1.0 待确认设计 / 非实时数据 / 非交易建议</text><text x="256" y="189" fill="#BAC5D4" font-family="Noto Sans CJK SC, sans-serif" font-size="13" font-weight="400" text-anchor="start">增长与价格</text><text x="410" y="189" fill="#BAC5D4" font-family="Noto Sans CJK SC, sans-serif" font-size="13" font-weight="400" text-anchor="start">流动性</text><text x="564" y="189" fill="#BAC5D4" font-family="Noto Sans CJK SC, sans-serif" font-size="13" font-weight="400" text-anchor="start">政策与利率</text><rect x="702" y="166" width="146" height="36" rx="6" fill="#273D55"/><text x="718" y="189" fill="#7DBBFF" font-family="Noto Sans CJK SC, sans-serif" font-size="13" font-weight="600" text-anchor="start">信用与社融</text><text x="872" y="189" fill="#BAC5D4" font-family="Noto Sans CJK SC, sans-serif" font-size="13" font-weight="400" text-anchor="start">其他分类</text><line x1="240" y1="209" x2="1576" y2="209" stroke="#3F4C60" stroke-width="1" opacity="1"/><rect x="240" y="231" width="856" height="347" rx="10" fill="#1A2330" stroke="#3F4C60" stroke-width="1"/><text x="260" y="263" fill="#F0F4F8" font-family="Noto Sans CJK SC, sans-serif" font-size="17" font-weight="600" text-anchor="start">M2 同比 · 样例观测</text><text x="260" y="287" fill="#BAC5D4" font-family="Noto Sans CJK SC, sans-serif" font-size="12" font-weight="400" text-anchor="start">当前界面仅有快照，不将静态值伪造成连续历史</text><text x="264" y="347" fill="#7DBBFF" font-family="Noto Sans CJK SC, sans-serif" font-size="58" font-weight="600" text-anchor="start">8.2%</text><text x="266" y="378" fill="#BAC5D4" font-family="Noto Sans CJK SC, sans-serif" font-size="14" font-weight="400" text-anchor="start">观察期：2026-06（月度）</text><text x="266" y="407" fill="#EFC27A" font-family="Noto Sans CJK SC, sans-serif" font-size="14" font-weight="400" text-anchor="start">来源发布日期：待核验</text><text x="266" y="436" fill="#BAC5D4" font-family="Noto Sans CJK SC, sans-serif" font-size="12" font-weight="400" text-anchor="start">文件生成时间不等于指标发布时间</text><rect x="612" y="312" width="460" height="221" rx="8" fill="#253140" stroke="#3F4C60" stroke-width="1"/><text x="842" y="385" fill="#F0F4F8" font-family="Noto Sans CJK SC, sans-serif" font-size="17" font-weight="500" text-anchor="middle">历史序列尚未接入当前页面</text><text x="842" y="420" fill="#BAC5D4" font-family="Noto Sans CJK SC, sans-serif" font-size="13" font-weight="400" text-anchor="middle">保留读数，不补趋势，不输出方向分。</text><rect x="728" y="456" width="230" height="36" rx="6" fill="#1A2330" stroke="#7889A1" stroke-width="1"/><text x="843.0" y="479.0" fill="#F0F4F8" font-family="Noto Sans CJK SC, sans-serif" font-size="13" font-weight="500" text-anchor="middle">查看来源与口径</text><rect x="1116" y="231" width="460" height="347" rx="10" fill="#1A2330" stroke="#3F4C60" stroke-width="1"/><text x="1136" y="263" fill="#F0F4F8" font-family="Noto Sans CJK SC, sans-serif" font-size="17" font-weight="600" text-anchor="start">当前可确认什么</text><text x="1136" y="287" fill="#BAC5D4" font-family="Noto Sans CJK SC, sans-serif" font-size="12" font-weight="400" text-anchor="start">观测、来源、模型，分开表达</text><text x="1138" y="320" fill="#7DBBFF" font-family="Noto Sans CJK SC, sans-serif" font-size="14" font-weight="600" text-anchor="start">观测值</text><text x="1138" y="345" fill="#BAC5D4" font-family="Noto Sans CJK SC, sans-serif" font-size="13" font-weight="400" text-anchor="start">样例展示：单位与观察期保持可见。</text><text x="1138" y="404" fill="#7DBBFF" font-family="Noto Sans CJK SC, sans-serif" font-size="14" font-weight="600" text-anchor="start">时效</text><text x="1138" y="429" fill="#BAC5D4" font-family="Noto Sans CJK SC, sans-serif" font-size="13" font-weight="400" text-anchor="start">日期精度不足，不显示“刚刚更新”。</text><text x="1138" y="488" fill="#7DBBFF" font-family="Noto Sans CJK SC, sans-serif" font-size="14" font-weight="600" text-anchor="start">方向模型</text><text x="1138" y="513" fill="#BAC5D4" font-family="Noto Sans CJK SC, sans-serif" font-size="13" font-weight="400" text-anchor="start">尚未准入，不绘制市场温度或牛熊分。</text><rect x="240" y="598" width="1336" height="346" rx="10" fill="#1A2330" stroke="#3F4C60" stroke-width="1"/><text x="260" y="630" fill="#F0F4F8" font-family="Noto Sans CJK SC, sans-serif" font-size="17" font-weight="600" text-anchor="start">宏观指标明细</text><text x="260" y="654" fill="#BAC5D4" font-family="Noto Sans CJK SC, sans-serif" font-size="12" font-weight="400" text-anchor="start">完整分类保留在分类选择中；空分类明确标记待接入</text><rect x="260" y="670" width="1296" height="38" rx="5" fill="#253140"/><text x="274" y="695" fill="#BAC5D4" font-family="Noto Sans CJK SC, sans-serif" font-size="12" font-weight="400" text-anchor="start">指标</text><text x="703.4117647058824" y="695" fill="#BAC5D4" font-family="Noto Sans CJK SC, sans-serif" font-size="12" font-weight="400" text-anchor="end">样例值</text><text x="731.4117647058824" y="695" fill="#BAC5D4" font-family="Noto Sans CJK SC, sans-serif" font-size="12" font-weight="400" text-anchor="start">单位</text><text x="883.8823529411766" y="695" fill="#BAC5D4" font-family="Noto Sans CJK SC, sans-serif" font-size="12" font-weight="400" text-anchor="start">观察期</text><text x="1082.094117647059" y="695" fill="#BAC5D4" font-family="Noto Sans CJK SC, sans-serif" font-size="12" font-weight="400" text-anchor="start">来源时点</text><text x="1310.8000000000002" y="695" fill="#BAC5D4" font-family="Noto Sans CJK SC, sans-serif" font-size="12" font-weight="400" text-anchor="start">状态</text><line x1="260" y1="756" x2="1556" y2="756" stroke="#3F4C60" stroke-width="0.6" opacity="1"/><text x="274" y="737.0" fill="#F0F4F8" font-family="Noto Sans CJK SC, sans-serif" font-size="13" font-weight="500" text-anchor="start">M2 同比</text><text x="703.4117647058824" y="737.0" fill="#F0F4F8" font-family="Noto Sans CJK SC, sans-serif" font-size="13" font-weight="400" text-anchor="end">8.2</text><text x="731.4117647058824" y="737.0" fill="#F0F4F8" font-family="Noto Sans CJK SC, sans-serif" font-size="13" font-weight="400" text-anchor="start">%</text><text x="883.8823529411766" y="737.0" fill="#F0F4F8" font-family="Noto Sans CJK SC, sans-serif" font-size="13" font-weight="400" text-anchor="start">2026-06</text><text x="1082.094117647059" y="737.0" fill="#F0F4F8" font-family="Noto Sans CJK SC, sans-serif" font-size="13" font-weight="400" text-anchor="start">待核验</text><text x="1310.8000000000002" y="737.0" fill="#EFC27A" font-family="Noto Sans CJK SC, sans-serif" font-size="13" font-weight="400" text-anchor="start">时效待核验</text><rect x="260" y="756" width="1296" height="48" rx="0" fill="#253140" opacity="0.28"/><line x1="260" y1="804" x2="1556" y2="804" stroke="#3F4C60" stroke-width="0.6" opacity="1"/><text x="274" y="785.0" fill="#F0F4F8" font-family="Noto Sans CJK SC, sans-serif" font-size="13" font-weight="500" text-anchor="start">社融存量同比</text><text x="703.4117647058824" y="785.0" fill="#F0F4F8" font-family="Noto Sans CJK SC, sans-serif" font-size="13" font-weight="400" text-anchor="end">7.8</text><text x="731.4117647058824" y="785.0" fill="#F0F4F8" font-family="Noto Sans CJK SC, sans-serif" font-size="13" font-weight="400" text-anchor="start">%</text><text x="883.8823529411766" y="785.0" fill="#F0F4F8" font-family="Noto Sans CJK SC, sans-serif" font-size="13" font-weight="400" text-anchor="start">2026-06</text><text x="1082.094117647059" y="785.0" fill="#F0F4F8" font-family="Noto Sans CJK SC, sans-serif" font-size="13" font-weight="400" text-anchor="start">待核验</text><text x="1310.8000000000002" y="785.0" fill="#EFC27A" font-family="Noto Sans CJK SC, sans-serif" font-size="13" font-weight="400" text-anchor="start">部分信息</text><line x1="260" y1="852" x2="1556" y2="852" stroke="#3F4C60" stroke-width="0.6" opacity="1"/><text x="274" y="833.0" fill="#F0F4F8" font-family="Noto Sans CJK SC, sans-serif" font-size="13" font-weight="500" text-anchor="start">新增人民币贷款</text><text x="703.4117647058824" y="833.0" fill="#F0F4F8" font-family="Noto Sans CJK SC, sans-serif" font-size="13" font-weight="400" text-anchor="end">—</text><text x="731.4117647058824" y="833.0" fill="#F0F4F8" font-family="Noto Sans CJK SC, sans-serif" font-size="13" font-weight="400" text-anchor="start">亿元</text><text x="883.8823529411766" y="833.0" fill="#F0F4F8" font-family="Noto Sans CJK SC, sans-serif" font-size="13" font-weight="400" text-anchor="start">2026-06</text><text x="1082.094117647059" y="833.0" fill="#F0F4F8" font-family="Noto Sans CJK SC, sans-serif" font-size="13" font-weight="400" text-anchor="start">缺失</text><text x="1310.8000000000002" y="833.0" fill="#BAC5D4" font-family="Noto Sans CJK SC, sans-serif" font-size="13" font-weight="400" text-anchor="start">未接入</text><rect x="260" y="852" width="1296" height="48" rx="0" fill="#253140" opacity="0.28"/><line x1="260" y1="900" x2="1556" y2="900" stroke="#3F4C60" stroke-width="0.6" opacity="1"/><text x="274" y="881.0" fill="#F0F4F8" font-family="Noto Sans CJK SC, sans-serif" font-size="13" font-weight="500" text-anchor="start">融资余额</text><text x="703.4117647058824" y="881.0" fill="#F0F4F8" font-family="Noto Sans CJK SC, sans-serif" font-size="13" font-weight="400" text-anchor="end">—</text><text x="731.4117647058824" y="881.0" fill="#F0F4F8" font-family="Noto Sans CJK SC, sans-serif" font-size="13" font-weight="400" text-anchor="start">亿元</text><text x="883.8823529411766" y="881.0" fill="#F0F4F8" font-family="Noto Sans CJK SC, sans-serif" font-size="13" font-weight="400" text-anchor="start">—</text><text x="1082.094117647059" y="881.0" fill="#F0F4F8" font-family="Noto Sans CJK SC, sans-serif" font-size="13" font-weight="400" text-anchor="start">缺失</text><text x="1310.8000000000002" y="881.0" fill="#BAC5D4" font-family="Noto Sans CJK SC, sans-serif" font-size="13" font-weight="400" text-anchor="start">暂无数据</text></svg>