<svg xmlns="http://www.w3.org/2000/svg" width="1600" height="1000" viewBox="0 0 1600 1000"><defs><linearGradient id="active"><stop stop-color="#7DBBFF" stop-opacity=".19"/><stop offset="1" stop-color="#B2A2E8" stop-opacity=".05"/></linearGradient><linearGradient id="lineArea" x1="0" y1="0" x2="0" y2="1"><stop stop-color="#7DBBFF" stop-opacity=".18"/><stop offset="1" stop-color="#7DBBFF" stop-opacity="0"/></linearGradient><linearGradient id="panelSheen" x1="0" y1="0" x2="1" y2="1"><stop stop-color="#0C1E32"/><stop offset=".6" stop-color="#0A192B"/><stop offset="1" stop-color="#091626"/></linearGradient><filter id="glow" x="-60%" y="-60%" width="220%" height="220%"><feGaussianBlur stdDeviation="3"/></filter></defs><rect x="0" y="0" width="1600" height="1000" rx="0" fill="#111720"/><rect x="0" y="0" width="208" height="1000" rx="0" fill="#1A2330"/><line x1="208" y1="0" x2="208" y2="1000" stroke="#3F4C60" stroke-width="1" opacity="1"/><circle cx="30" cy="34" r="10" fill="none" stroke="#7DBBFF" stroke-width="1.3" opacity="1"/><circle cx="30" cy="34" r="3" fill="#7DBBFF" opacity="1"/><text x="50" y="41" fill="#F0F4F8" font-family="Noto Sans CJK SC, sans-serif" font-size="20" font-weight="600" text-anchor="start">投研工作台</text><text x="25" y="73" fill="#BAC5D4" font-family="Noto Sans CJK SC, sans-serif" font-size="12" font-weight="400" text-anchor="start">全球视角 · 证据驱动</text><path d="M26 117 L34 110 L42 117 M29 115 V124 H39 V115" stroke="#BAC5D4" stroke-width="1.7" fill="none" opacity="1" stroke-linecap="round" stroke-linejoin="round"/><text x="58" y="122" fill="#BAC5D4" font-family="Noto Sans CJK SC, sans-serif" font-size="14" font-weight="400" text-anchor="start">首页</text><rect x="27" y="175" width="3" height="6" rx="1" fill="#BAC5D4"/><rect x="33" y="169" width="3" height="12" rx="1" fill="#BAC5D4"/><rect x="39" y="172" width="3" height="9" rx="1" fill="#BAC5D4"/><text x="58" y="179" fill="#BAC5D4" font-family="Noto Sans CJK SC, sans-serif" font-size="14" font-weight="400" text-anchor="start">宏观</text><rect x="27" y="224" width="14" height="14" rx="2" fill="none" stroke="#BAC5D4" stroke-width="1"/><line x1="34" y1="224" x2="34" y2="238" stroke="#BAC5D4" stroke-width="1" opacity="1"/><line x1="27" y1="231" x2="41" y2="231" stroke="#BAC5D4" stroke-width="1" opacity="1"/><text x="58" y="236" fill="#BAC5D4" font-family="Noto Sans CJK SC, sans-serif" font-size="14" font-weight="400" text-anchor="start">行业</text><rect x="27" y="289" width="3" height="6" rx="1" fill="#BAC5D4"/><rect x="33" y="283" width="3" height="12" rx="1" fill="#BAC5D4"/><rect x="39" y="286" width="3" height="9" rx="1" fill="#BAC5D4"/><text x="58" y="293" fill="#BAC5D4" font-family="Noto Sans CJK SC, sans-serif" font-size="14" font-weight="400" text-anchor="start">个股池</text><rect x="27" y="338" width="14" height="14" rx="2" fill="none" stroke="#BAC5D4" stroke-width="1"/><path d="M30 345 l3 3 l5 -6" stroke="#BAC5D4" stroke-width="1.4" fill="none" opacity="1" stroke-linecap="round" stroke-linejoin="round"/><text x="58" y="350" fill="#BAC5D4" font-family="Noto Sans CJK SC, sans-serif" font-size="14" font-weight="400" text-anchor="start">观察清单</text><rect x="12" y="382" width="184" height="44" rx="7" fill="#273D55" stroke="#7DBBFF" stroke-width="0.75" opacity="0.99"/><rect x="12" y="388" width="3" height="32" rx="1" fill="#7DBBFF"/><path d="M31 394 H37 M32 394 V400 L27 409 H41 L36 400 V394" stroke="#7DBBFF" stroke-width="1.4" fill="none" opacity="1" stroke-linecap="round" stroke-linejoin="round"/><text x="58" y="407" fill="#F0F4F8" font-family="Noto Sans CJK SC, sans-serif" font-size="14" font-weight="600" text-anchor="start">验证中心</text><rect x="28" y="451" width="12" height="16" rx="2" fill="none" stroke="#BAC5D4" stroke-width="1"/><line x1="31" y1="456" x2="37" y2="456" stroke="#BAC5D4" stroke-width="1" opacity="1"/><line x1="31" y1="461" x2="37" y2="461" stroke="#BAC5D4" stroke-width="1" opacity="1"/><text x="58" y="464" fill="#BAC5D4" font-family="Noto Sans CJK SC, sans-serif" font-size="14" font-weight="400" text-anchor="start">预期证据</text><text x="25" y="824" fill="#F0F4F8" font-family="Noto Sans CJK SC, sans-serif" font-size="16" font-weight="500" text-anchor="start">深度研究</text><text x="25" y="850" fill="#BAC5D4" font-family="Noto Sans CJK SC, sans-serif" font-size="14" font-weight="400" text-anchor="start">让判断有据可查</text><path d="M0 969 L35 932 L63 945 L106 884 L132 927 L170 911 L208 958" stroke="#7DBBFF" stroke-width="0.7" fill="none" opacity="0.05" stroke-linecap="round" stroke-linejoin="round"/><path d="M0 960 L35 927 L63 938 L106 882 L132 922 L170 907 L208 950" stroke="#7DBBFF" stroke-width="0.7" fill="none" opacity="0.05" stroke-linecap="round" stroke-linejoin="round"/><path d="M0 951 L35 922 L63 931 L106 880 L132 917 L170 903 L208 942" stroke="#7DBBFF" stroke-width="0.7" fill="none" opacity="0.05" stroke-linecap="round" stroke-linejoin="round"/><path d="M0 942 L35 917 L63 924 L106 878 L132 912 L170 899 L208 934" stroke="#7DBBFF" stroke-width="0.7" fill="none" opacity="0.05" stroke-linecap="round" stroke-linejoin="round"/><path d="M0 933 L35 912 L63 917 L106 876 L132 907 L170 895 L208 926" stroke="#7DBBFF" stroke-width="0.7" fill="none" opacity="0.05" stroke-linecap="round" stroke-linejoin="round"/><text x="25" y="981" fill="#BAC5D4" font-family="Noto Sans CJK SC, sans-serif" font-size="12" font-weight="400" text-anchor="start">本机研究空间</text><rect x="208" y="0" width="1392" height="72" rx="0" fill="#111720"/><line x1="208" y1="72" x2="1600" y2="72" stroke="#3F4C60" stroke-width="1" opacity="1"/><rect x="240" y="18" width="456" height="36" rx="7" fill="#1A2330" stroke="#7889A1" stroke-width="0.8"/><circle cx="258" cy="35" r="6" fill="none" stroke="#BAC5D4" stroke-width="1.3" opacity="1"/><line x1="262" y1="39" x2="266" y2="43" stroke="#BAC5D4" stroke-width="1.4" opacity="1"/><text x="280" y="41" fill="#BAC5D4" font-family="Noto Sans CJK SC, sans-serif" font-size="13" font-weight="400" text-anchor="start">搜索当前研究池：公司、代码、行业</text><rect x="954" y="22" width="184" height="28" rx="5" fill="#253140" stroke="#EFC27A" stroke-width="0.7"/><text x="1046.0" y="40.5" fill="#EFC27A" font-family="Noto Sans CJK SC, sans-serif" font-size="12" font-weight="500" text-anchor="middle">设计示意 · 合成样例</text><rect x="1150" y="22" width="136" height="28" rx="5" fill="#253140" stroke="#BAC5D4" stroke-width="0.7"/><text x="1218.0" y="40.5" fill="#BAC5D4" font-family="Noto Sans CJK SC, sans-serif" font-size="12" font-weight="500" text-anchor="middle">数据模式：模拟</text><rect x="1300" y="18" width="184" height="36" rx="6" fill="#1A2330" stroke="#7889A1" stroke-width="0.8"/><text x="1315" y="41" fill="#7DBBFF" font-family="Noto Sans CJK SC, sans-serif" font-size="13" font-weight="500" text-anchor="start">外观：深色专业</text><circle cx="1497" cy="36" r="4" fill="#7DBBFF" opacity="1"/><circle cx="1515" cy="36" r="4" fill="#B2A2E8" opacity="1"/><circle cx="1533" cy="36" r="4" fill="#BAC5D4" opacity="1"/><text x="240" y="115" fill="#F0F4F8" font-family="Noto Sans CJK SC, sans-serif" font-size="25" font-weight="600" text-anchor="start">验证中心 / 事件与证据</text><text x="240" y="144" fill="#BAC5D4" font-family="Noto Sans CJK SC, sans-serif" font-size="13" font-weight="400" text-anchor="start">围绕选中事件对账，而不是继续增加长卡片。</text><text x="1575" y="979" fill="#BAC5D4" font-family="Noto Sans CJK SC, sans-serif" font-size="11" font-weight="400" text-anchor="end">V1.0 待确认设计 / 非实时数据 / 非交易建议</text><rect x="240" y="168" width="166" height="36" rx="6" fill="#273D55"/><text x="256" y="191" fill="#7DBBFF" font-family="Noto Sans CJK SC, sans-serif" font-size="13" font-weight="600" text-anchor="start">事件与验证</text><text x="430" y="191" fill="#BAC5D4" font-family="Noto Sans CJK SC, sans-serif" font-size="13" font-weight="400" text-anchor="start">全局核验队列</text><text x="604" y="191" fill="#BAC5D4" font-family="Noto Sans CJK SC, sans-serif" font-size="13" font-weight="400" text-anchor="start">业绩验证链</text><line x1="240" y1="211" x2="1576" y2="211" stroke="#3F4C60" stroke-width="1" opacity="1"/><rect x="240" y="232" width="1336" height="75" rx="10" fill="#1A2330" stroke="#3F4C60" stroke-width="1"/><rect x="257" y="251" width="202" height="36" rx="6" fill="#1A2330" stroke="#7889A1" stroke-width="1"/><text x="358.0" y="274.0" fill="#F0F4F8" font-family="Noto Sans CJK SC, sans-serif" font-size="13" font-weight="500" text-anchor="middle">全部公司</text><rect x="477" y="251" width="202" height="36" rx="6" fill="#1A2330" stroke="#7889A1" stroke-width="1"/><text x="578.0" y="274.0" fill="#F0F4F8" font-family="Noto Sans CJK SC, sans-serif" font-size="13" font-weight="500" text-anchor="middle">全部行业</text><rect x="697" y="251" width="202" height="36" rx="6" fill="#1A2330" stroke="#7889A1" stroke-width="1"/><text x="798.0" y="274.0" fill="#F0F4F8" font-family="Noto Sans CJK SC, sans-serif" font-size="13" font-weight="500" text-anchor="middle">全部事件</text><rect x="917" y="251" width="202" height="36" rx="6" fill="#1A2330" stroke="#7889A1" stroke-width="1"/><text x="1018.0" y="274.0" fill="#F0F4F8" font-family="Noto Sans CJK SC, sans-serif" font-size="13" font-weight="500" text-anchor="middle">最近 30 天</text><rect x="1137" y="251" width="202" height="36" rx="6" fill="#1A2330" stroke="#7889A1" stroke-width="1"/><text x="1238.0" y="274.0" fill="#F0F4F8" font-family="Noto Sans CJK SC, sans-serif" font-size="13" font-weight="500" text-anchor="middle">全部数据状态</text><rect x="1357" y="251" width="202" height="36" rx="6" fill="#1A2330" stroke="#7889A1" stroke-width="1"/><text x="1458.0" y="274.0" fill="#F0F4F8" font-family="Noto Sans CJK SC, sans-serif" font-size="13" font-weight="500" text-anchor="middle">全部复盘状态</text><rect x="240" y="327" width="408" height="617" rx="10" fill="#1A2330" stroke="#3F4C60" stroke-width="1"/><text x="260" y="359" fill="#F0F4F8" font-family="Noto Sans CJK SC, sans-serif" font-size="17" font-weight="600" text-anchor="start">事件列表 / 样例</text><text x="260" y="383" fill="#BAC5D4" font-family="Noto Sans CJK SC, sans-serif" font-size="12" font-weight="400" text-anchor="start">选中事件，不自动修改复盘状态</text><rect x="254" y="392" width="380" height="94" rx="6" fill="#273D55" stroke="#7DBBFF" stroke-width="0.7"/><text x="274" y="419" fill="#F0F4F8" font-family="Noto Sans CJK SC, sans-serif" font-size="15" font-weight="500" text-anchor="start">示例科技 A · 定期报告</text><text x="274" y="449" fill="#7DBBFF" font-family="Noto Sans CJK SC, sans-serif" font-size="12" font-weight="400" text-anchor="start">实际值已匹配 / 待复盘</text><text x="274" y="473" fill="#BAC5D4" font-family="Noto Sans CJK SC, sans-serif" font-size="11" font-weight="400" text-anchor="start">2026-09-05（样例时点）</text><text x="274" y="532" fill="#F0F4F8" font-family="Noto Sans CJK SC, sans-serif" font-size="15" font-weight="500" text-anchor="start">示例制造 B · 预期修订</text><text x="274" y="562" fill="#B2A2E8" font-family="Noto Sans CJK SC, sans-serif" font-size="12" font-weight="400" text-anchor="start">业务修订 / 待复盘</text><text x="274" y="586" fill="#BAC5D4" font-family="Noto Sans CJK SC, sans-serif" font-size="11" font-weight="400" text-anchor="start">2026-09-05（样例时点）</text><text x="274" y="645" fill="#F0F4F8" font-family="Noto Sans CJK SC, sans-serif" font-size="15" font-weight="500" text-anchor="start">示例医药 C · 数据差异</text><text x="274" y="675" fill="#EFC27A" font-family="Noto Sans CJK SC, sans-serif" font-size="12" font-weight="400" text-anchor="start">内容冲突 / 暂停比较</text><text x="274" y="699" fill="#BAC5D4" font-family="Noto Sans CJK SC, sans-serif" font-size="11" font-weight="400" text-anchor="start">2026-09-05（样例时点）</text><text x="274" y="758" fill="#F0F4F8" font-family="Noto Sans CJK SC, sans-serif" font-size="15" font-weight="500" text-anchor="start">示例材料 D · 财务更新</text><text x="274" y="788" fill="#BAC5D4" font-family="Noto Sans CJK SC, sans-serif" font-size="12" font-weight="400" text-anchor="start">摘要更新 / 查看来源</text><text x="274" y="812" fill="#BAC5D4" font-family="Noto Sans CJK SC, sans-serif" font-size="11" font-weight="400" text-anchor="start">2026-09-05（样例时点）</text><rect x="668" y="327" width="908" height="617" rx="10" fill="#1A2330" stroke="#3F4C60" stroke-width="1"/><text x="688" y="359" fill="#F0F4F8" font-family="Noto Sans CJK SC, sans-serif" font-size="17" font-weight="600" text-anchor="start">选中事件 / 定期报告</text><text x="688" y="383" fill="#BAC5D4" font-family="Noto Sans CJK SC, sans-serif" font-size="12" font-weight="400" text-anchor="start">公司指引 → 修订（如有）→ 正式报告；不存在的阶段不补齐</text><rect x="690" y="423" width="412" height="168" rx="8" fill="#253140" stroke="#3F4C60" stroke-width="1"/><text x="708" y="453" fill="#BAC5D4" font-family="Noto Sans CJK SC, sans-serif" font-size="14" font-weight="400" text-anchor="start">事前证据</text><text x="708" y="507" fill="#7DBBFF" font-family="Noto Sans CJK SC, sans-serif" font-size="36" font-weight="600" text-anchor="start">105–115</text><text x="708" y="559" fill="#BAC5D4" font-family="Noto Sans CJK SC, sans-serif" font-size="12" font-weight="400" text-anchor="start">公司指引 / 人民币百万元</text><rect x="1124" y="423" width="412" height="168" rx="8" fill="#253140" stroke="#3F4C60" stroke-width="1"/><text x="1142" y="453" fill="#BAC5D4" font-family="Noto Sans CJK SC, sans-serif" font-size="14" font-weight="400" text-anchor="start">事后实际</text><text x="1142" y="507" fill="#F0F4F8" font-family="Noto Sans CJK SC, sans-serif" font-size="36" font-weight="600" text-anchor="start">112</text><text x="1142" y="559" fill="#BAC5D4" font-family="Noto Sans CJK SC, sans-serif" font-size="12" font-weight="400" text-anchor="start">半年报 / 同指标累计口径</text><rect x="690" y="614" width="172" height="28" rx="5" fill="#253140" stroke="#7DBBFF" stroke-width="0.7"/><text x="776.0" y="632.5" fill="#7DBBFF" font-family="Noto Sans CJK SC, sans-serif" font-size="12" font-weight="500" text-anchor="middle">来源：已核验</text><rect x="878" y="614" width="172" height="28" rx="5" fill="#253140" stroke="#7DBBFF" stroke-width="0.7"/><text x="964.0" y="632.5" fill="#7DBBFF" font-family="Noto Sans CJK SC, sans-serif" font-size="12" font-weight="500" text-anchor="middle">时间：事前有效</text><rect x="1066" y="614" width="172" height="28" rx="5" fill="#253140" stroke="#7DBBFF" stroke-width="0.7"/><text x="1152.0" y="632.5" fill="#7DBBFF" font-family="Noto Sans CJK SC, sans-serif" font-size="12" font-weight="500" text-anchor="middle">口径：可比较</text><text x="692" y="695" fill="#F0F4F8" font-family="Noto Sans CJK SC, sans-serif" font-size="22" font-weight="600" text-anchor="start">结论：处于公司指引区间内（样例）</text><text x="692" y="732" fill="#BAC5D4" font-family="Noto Sans CJK SC, sans-serif" font-size="14" font-weight="400" text-anchor="start">这是同一来源类别的业绩对照，不等于“超过机构一致预期”，也不自动改变用户研究判断。</text><rect x="692" y="852" width="194" height="36" rx="6" fill="#7DBBFF"/><text x="789.0" y="875.0" fill="#101A27" font-family="Noto Sans CJK SC, sans-serif" font-size="13" font-weight="500" text-anchor="middle">打开完整研究</text><rect x="902" y="852" width="166" height="36" rx="6" fill="#1A2330" stroke="#7889A1" stroke-width="1"/><text x="985.0" y="875.0" fill="#F0F4F8" font-family="Noto Sans CJK SC, sans-serif" font-size="13" font-weight="500" text-anchor="middle">开始复盘</text><rect x="1084" y="852" width="194" height="36" rx="6" fill="#1A2330" stroke="#7889A1" stroke-width="1"/><text x="1181.0" y="875.0" fill="#F0F4F8" font-family="Noto Sans CJK SC, sans-serif" font-size="13" font-weight="500" text-anchor="middle">查看原始公告</text></svg>