<svg xmlns="http://www.w3.org/2000/svg" width="1600" height="1000" viewBox="0 0 1600 1000"><defs><linearGradient id="active"><stop stop-color="#005CBF" stop-opacity=".19"/><stop offset="1" stop-color="#6B46C1" stop-opacity=".05"/></linearGradient><linearGradient id="lineArea" x1="0" y1="0" x2="0" y2="1"><stop stop-color="#005CBF" stop-opacity=".18"/><stop offset="1" stop-color="#005CBF" stop-opacity="0"/></linearGradient><linearGradient id="panelSheen" x1="0" y1="0" x2="1" y2="1"><stop stop-color="#0C1E32"/><stop offset=".6" stop-color="#0A192B"/><stop offset="1" stop-color="#091626"/></linearGradient><filter id="glow" x="-60%" y="-60%" width="220%" height="220%"><feGaussianBlur stdDeviation="3"/></filter></defs><rect x="0" y="0" width="1600" height="1000" rx="0" fill="#F3F6FB"/><rect x="0" y="0" width="208" height="1000" rx="0" fill="#FFFFFF"/><line x1="208" y1="0" x2="208" y2="1000" stroke="#CBD5E1" stroke-width="1" opacity="1"/><circle cx="30" cy="34" r="10" fill="none" stroke="#005CBF" stroke-width="1.3" opacity="1"/><circle cx="30" cy="34" r="3" fill="#005CBF" opacity="1"/><text x="50" y="41" fill="#14233C" font-family="Noto Sans CJK SC, sans-serif" font-size="20" font-weight="600" text-anchor="start">投研工作台</text><text x="25" y="73" fill="#536581" font-family="Noto Sans CJK SC, sans-serif" font-size="12" font-weight="400" text-anchor="start">全球视角 · 证据驱动</text><path d="M26 117 L34 110 L42 117 M29 115 V124 H39 V115" stroke="#536581" stroke-width="1.7" fill="none" opacity="1" stroke-linecap="round" stroke-linejoin="round"/><text x="58" y="122" fill="#536581" font-family="Noto Sans CJK SC, sans-serif" font-size="14" font-weight="400" text-anchor="start">首页</text><rect x="27" y="175" width="3" height="6" rx="1" fill="#536581"/><rect x="33" y="169" width="3" height="12" rx="1" fill="#536581"/><rect x="39" y="172" width="3" height="9" rx="1" fill="#536581"/><text x="58" y="179" fill="#536581" font-family="Noto Sans CJK SC, sans-serif" font-size="14" font-weight="400" text-anchor="start">宏观</text><rect x="27" y="224" width="14" height="14" rx="2" fill="none" stroke="#536581" stroke-width="1"/><line x1="34" y1="224" x2="34" y2="238" stroke="#536581" stroke-width="1" opacity="1"/><line x1="27" y1="231" x2="41" y2="231" stroke="#536581" stroke-width="1" opacity="1"/><text x="58" y="236" fill="#536581" font-family="Noto Sans CJK SC, sans-serif" font-size="14" font-weight="400" text-anchor="start">行业</text><rect x="27" y="289" width="3" height="6" rx="1" fill="#536581"/><rect x="33" y="283" width="3" height="12" rx="1" fill="#536581"/><rect x="39" y="286" width="3" height="9" rx="1" fill="#536581"/><text x="58" y="293" fill="#536581" font-family="Noto Sans CJK SC, sans-serif" font-size="14" font-weight="400" text-anchor="start">个股池</text><rect x="12" y="325" width="184" height="44" rx="7" fill="#E1EEFF" stroke="#005CBF" stroke-width="0.75" opacity="0.99"/><rect x="12" y="331" width="3" height="32" rx="1" fill="#005CBF"/><rect x="27" y="338" width="14" height="14" rx="2" fill="none" stroke="#005CBF" stroke-width="1"/><path d="M30 345 l3 3 l5 -6" stroke="#005CBF" stroke-width="1.4" fill="none" opacity="1" stroke-linecap="round" stroke-linejoin="round"/><text x="58" y="350" fill="#14233C" font-family="Noto Sans CJK SC, sans-serif" font-size="14" font-weight="600" text-anchor="start">观察清单</text><path d="M31 394 H37 M32 394 V400 L27 409 H41 L36 400 V394" stroke="#536581" stroke-width="1.4" fill="none" opacity="1" stroke-linecap="round" stroke-linejoin="round"/><text x="58" y="407" fill="#536581" font-family="Noto Sans CJK SC, sans-serif" font-size="14" font-weight="400" text-anchor="start">验证中心</text><rect x="28" y="451" width="12" height="16" rx="2" fill="none" stroke="#536581" stroke-width="1"/><line x1="31" y1="456" x2="37" y2="456" stroke="#536581" stroke-width="1" opacity="1"/><line x1="31" y1="461" x2="37" y2="461" stroke="#536581" stroke-width="1" opacity="1"/><text x="58" y="464" fill="#536581" font-family="Noto Sans CJK SC, sans-serif" font-size="14" font-weight="400" text-anchor="start">预期证据</text><text x="25" y="824" fill="#14233C" font-family="Noto Sans CJK SC, sans-serif" font-size="16" font-weight="500" text-anchor="start">深度研究</text><text x="25" y="850" fill="#536581" font-family="Noto Sans CJK SC, sans-serif" font-size="14" font-weight="400" text-anchor="start">让判断有据可查</text><path d="M0 969 L35 932 L63 945 L106 884 L132 927 L170 911 L208 958" stroke="#005CBF" stroke-width="0.7" fill="none" opacity="0.1" stroke-linecap="round" stroke-linejoin="round"/><path d="M0 960 L35 927 L63 938 L106 882 L132 922 L170 907 L208 950" stroke="#005CBF" stroke-width="0.7" fill="none" opacity="0.1" stroke-linecap="round" stroke-linejoin="round"/><path d="M0 951 L35 922 L63 931 L106 880 L132 917 L170 903 L208 942" stroke="#005CBF" stroke-width="0.7" fill="none" opacity="0.1" stroke-linecap="round" stroke-linejoin="round"/><path d="M0 942 L35 917 L63 924 L106 878 L132 912 L170 899 L208 934" stroke="#005CBF" stroke-width="0.7" fill="none" opacity="0.1" stroke-linecap="round" stroke-linejoin="round"/><path d="M0 933 L35 912 L63 917 L106 876 L132 907 L170 895 L208 926" stroke="#005CBF" stroke-width="0.7" fill="none" opacity="0.1" stroke-linecap="round" stroke-linejoin="round"/><text x="25" y="981" fill="#536581" font-family="Noto Sans CJK SC, sans-serif" font-size="12" font-weight="400" text-anchor="start">本机研究空间</text><rect x="208" y="0" width="1392" height="72" rx="0" fill="#F3F6FB"/><line x1="208" y1="72" x2="1600" y2="72" stroke="#CBD5E1" stroke-width="1" opacity="1"/><rect x="240" y="18" width="456" height="36" rx="7" fill="#FFFFFF" stroke="#6B7E94" stroke-width="0.8"/><circle cx="258" cy="35" r="6" fill="none" stroke="#536581" stroke-width="1.3" opacity="1"/><line x1="262" y1="39" x2="266" y2="43" stroke="#536581" stroke-width="1.4" opacity="1"/><text x="280" y="41" fill="#536581" font-family="Noto Sans CJK SC, sans-serif" font-size="13" font-weight="400" text-anchor="start">搜索当前研究池：公司、代码、行业</text><rect x="954" y="22" width="184" height="28" rx="5" fill="#EAF0F8" stroke="#865700" stroke-width="0.7"/><text x="1046.0" y="40.5" fill="#865700" font-family="Noto Sans CJK SC, sans-serif" font-size="12" font-weight="500" text-anchor="middle">设计示意 · 合成样例</text><rect x="1150" y="22" width="136" height="28" rx="5" fill="#EAF0F8" stroke="#536581" stroke-width="0.7"/><text x="1218.0" y="40.5" fill="#536581" font-family="Noto Sans CJK SC, sans-serif" font-size="12" font-weight="500" text-anchor="middle">数据模式：模拟</text><rect x="1300" y="18" width="184" height="36" rx="6" fill="#FFFFFF" stroke="#6B7E94" stroke-width="0.8"/><text x="1315" y="41" fill="#005CBF" font-family="Noto Sans CJK SC, sans-serif" font-size="13" font-weight="500" text-anchor="start">外观：明亮简洁</text><circle cx="1497" cy="36" r="4" fill="#005CBF" opacity="1"/><circle cx="1515" cy="36" r="4" fill="#6B46C1" opacity="1"/><circle cx="1533" cy="36" r="4" fill="#536581" opacity="1"/><text x="240" y="115" fill="#14233C" font-family="Noto Sans CJK SC, sans-serif" font-size="25" font-weight="600" text-anchor="start">观察清单 / 待办与复盘</text><text x="240" y="144" fill="#536581" font-family="Noto Sans CJK SC, sans-serif" font-size="13" font-weight="400" text-anchor="start">提醒、判断和复盘分开；确认提醒不等于改变研究结论。</text><text x="1575" y="979" fill="#536581" font-family="Noto Sans CJK SC, sans-serif" font-size="11" font-weight="400" text-anchor="end">V1.0 待确认设计 / 非实时数据 / 非交易建议</text><rect x="240" y="168" width="319" height="104" rx="10" fill="#FFFFFF" stroke="#CBD5E1" stroke-width="1"/><text x="258" y="196" fill="#536581" font-family="Noto Sans CJK SC, sans-serif" font-size="13" font-weight="400" text-anchor="start">正在观察</text><text x="258" y="234" fill="#005CBF" font-family="Noto Sans CJK SC, sans-serif" font-size="28" font-weight="600" text-anchor="start">4 家</text><text x="258" y="256" fill="#536581" font-family="Noto Sans CJK SC, sans-serif" font-size="12" font-weight="400" text-anchor="start">本样例用户记录</text><rect x="579" y="168" width="319" height="104" rx="10" fill="#FFFFFF" stroke="#CBD5E1" stroke-width="1"/><text x="597" y="196" fill="#536581" font-family="Noto Sans CJK SC, sans-serif" font-size="13" font-weight="400" text-anchor="start">待复盘</text><text x="597" y="234" fill="#865700" font-family="Noto Sans CJK SC, sans-serif" font-size="28" font-weight="600" text-anchor="start">3 家</text><text x="597" y="256" fill="#536581" font-family="Noto Sans CJK SC, sans-serif" font-size="12" font-weight="400" text-anchor="start">按公司去重</text><rect x="918" y="168" width="319" height="104" rx="10" fill="#FFFFFF" stroke="#CBD5E1" stroke-width="1"/><text x="936" y="196" fill="#536581" font-family="Noto Sans CJK SC, sans-serif" font-size="13" font-weight="400" text-anchor="start">已逾期</text><text x="936" y="234" fill="#865700" font-family="Noto Sans CJK SC, sans-serif" font-size="28" font-weight="600" text-anchor="start">1 家</text><text x="936" y="256" fill="#536581" font-family="Noto Sans CJK SC, sans-serif" font-size="12" font-weight="400" text-anchor="start">只生成提醒</text><rect x="1257" y="168" width="319" height="104" rx="10" fill="#FFFFFF" stroke="#CBD5E1" stroke-width="1"/><text x="1275" y="196" fill="#536581" font-family="Noto Sans CJK SC, sans-serif" font-size="13" font-weight="400" text-anchor="start">已归档</text><text x="1275" y="234" fill="#536581" font-family="Noto Sans CJK SC, sans-serif" font-size="28" font-weight="600" text-anchor="start">1 家</text><text x="1275" y="256" fill="#536581" font-family="Noto Sans CJK SC, sans-serif" font-size="12" font-weight="400" text-anchor="start">历史仍可查看</text><rect x="240" y="292" width="142" height="36" rx="6" fill="#E1EEFF"/><text x="256" y="315" fill="#005CBF" font-family="Noto Sans CJK SC, sans-serif" font-size="13" font-weight="600" text-anchor="start">全部观察</text><text x="406" y="315" fill="#536581" font-family="Noto Sans CJK SC, sans-serif" font-size="13" font-weight="400" text-anchor="start">仅看逾期</text><text x="556" y="315" fill="#536581" font-family="Noto Sans CJK SC, sans-serif" font-size="13" font-weight="400" text-anchor="start">仅看新事件</text><text x="706" y="315" fill="#536581" font-family="Noto Sans CJK SC, sans-serif" font-size="13" font-weight="400" text-anchor="start">归档记录</text><line x1="240" y1="335" x2="1576" y2="335" stroke="#CBD5E1" stroke-width="1" opacity="1"/><rect x="1236" y="292" width="156" height="36" rx="6" fill="#FFFFFF" stroke="#6B7E94" stroke-width="1"/><text x="1314.0" y="315.0" fill="#14233C" font-family="Noto Sans CJK SC, sans-serif" font-size="13" font-weight="500" text-anchor="middle">备份 / 导入</text><rect x="1408" y="292" width="168" height="36" rx="6" fill="#005CBF"/><text x="1492.0" y="315.0" fill="#FFFFFF" font-family="Noto Sans CJK SC, sans-serif" font-size="13" font-weight="500" text-anchor="middle">添加观察项</text><rect x="240" y="359" width="900" height="585" rx="10" fill="#FFFFFF" stroke="#CBD5E1" stroke-width="1"/><text x="260" y="391" fill="#14233C" font-family="Noto Sans CJK SC, sans-serif" font-size="17" font-weight="600" text-anchor="start">个人观察清单</text><text x="260" y="415" fill="#536581" font-family="Noto Sans CJK SC, sans-serif" font-size="12" font-weight="400" text-anchor="start">完整筛选保留；长篇判断进入右侧详情</text><rect x="260" y="436" width="860" height="38" rx="5" fill="#EAF0F8"/><text x="274" y="461" fill="#536581" font-family="Noto Sans CJK SC, sans-serif" font-size="12" font-weight="400" text-anchor="start">公司</text><text x="474.0" y="461" fill="#536581" font-family="Noto Sans CJK SC, sans-serif" font-size="12" font-weight="400" text-anchor="start">观察状态</text><text x="674.0" y="461" fill="#536581" font-family="Noto Sans CJK SC, sans-serif" font-size="12" font-weight="400" text-anchor="start">下次复盘</text><text x="874.0" y="461" fill="#536581" font-family="Noto Sans CJK SC, sans-serif" font-size="12" font-weight="400" text-anchor="start">优先级</text><text x="974.0" y="461" fill="#536581" font-family="Noto Sans CJK SC, sans-serif" font-size="12" font-weight="400" text-anchor="start">操作</text><line x1="260" y1="544" x2="1120" y2="544" stroke="#CBD5E1" stroke-width="0.6" opacity="1"/><text x="274" y="514.0" fill="#14233C" font-family="Noto Sans CJK SC, sans-serif" font-size="13" font-weight="500" text-anchor="start">示例科技 A</text><text x="474.0" y="514.0" fill="#14233C" font-family="Noto Sans CJK SC, sans-serif" font-size="13" font-weight="400" text-anchor="start">等业绩验证</text><text x="674.0" y="514.0" fill="#14233C" font-family="Noto Sans CJK SC, sans-serif" font-size="13" font-weight="400" text-anchor="start">09-10</text><text x="874.0" y="514.0" fill="#14233C" font-family="Noto Sans CJK SC, sans-serif" font-size="13" font-weight="400" text-anchor="start">高</text><text x="974.0" y="514.0" fill="#14233C" font-family="Noto Sans CJK SC, sans-serif" font-size="13" font-weight="400" text-anchor="start">开始复盘</text><rect x="260" y="544" width="860" height="70" rx="0" fill="#EAF0F8" opacity="0.28"/><line x1="260" y1="614" x2="1120" y2="614" stroke="#CBD5E1" stroke-width="0.6" opacity="1"/><text x="274" y="584.0" fill="#14233C" font-family="Noto Sans CJK SC, sans-serif" font-size="13" font-weight="500" text-anchor="start">示例制造 B</text><text x="474.0" y="584.0" fill="#14233C" font-family="Noto Sans CJK SC, sans-serif" font-size="13" font-weight="400" text-anchor="start">观察</text><text x="674.0" y="584.0" fill="#865700" font-family="Noto Sans CJK SC, sans-serif" font-size="13" font-weight="400" text-anchor="start">09-08 · 已逾期</text><text x="874.0" y="584.0" fill="#14233C" font-family="Noto Sans CJK SC, sans-serif" font-size="13" font-weight="400" text-anchor="start">高</text><text x="974.0" y="584.0" fill="#14233C" font-family="Noto Sans CJK SC, sans-serif" font-size="13" font-weight="400" text-anchor="start">开始复盘</text><line x1="260" y1="684" x2="1120" y2="684" stroke="#CBD5E1" stroke-width="0.6" opacity="1"/><text x="274" y="654.0" fill="#14233C" font-family="Noto Sans CJK SC, sans-serif" font-size="13" font-weight="500" text-anchor="start">示例医药 C</text><text x="474.0" y="654.0" fill="#14233C" font-family="Noto Sans CJK SC, sans-serif" font-size="13" font-weight="400" text-anchor="start">等回调</text><text x="674.0" y="654.0" fill="#14233C" font-family="Noto Sans CJK SC, sans-serif" font-size="13" font-weight="400" text-anchor="start">09-12</text><text x="874.0" y="654.0" fill="#14233C" font-family="Noto Sans CJK SC, sans-serif" font-size="13" font-weight="400" text-anchor="start">中</text><text x="974.0" y="654.0" fill="#14233C" font-family="Noto Sans CJK SC, sans-serif" font-size="13" font-weight="400" text-anchor="start">开始复盘</text><rect x="260" y="684" width="860" height="70" rx="0" fill="#EAF0F8" opacity="0.28"/><line x1="260" y1="754" x2="1120" y2="754" stroke="#CBD5E1" stroke-width="0.6" opacity="1"/><text x="274" y="724.0" fill="#14233C" font-family="Noto Sans CJK SC, sans-serif" font-size="13" font-weight="500" text-anchor="start">示例材料 D</text><text x="474.0" y="724.0" fill="#14233C" font-family="Noto Sans CJK SC, sans-serif" font-size="13" font-weight="400" text-anchor="start">观察</text><text x="674.0" y="724.0" fill="#14233C" font-family="Noto Sans CJK SC, sans-serif" font-size="13" font-weight="400" text-anchor="start">09-18</text><text x="874.0" y="724.0" fill="#14233C" font-family="Noto Sans CJK SC, sans-serif" font-size="13" font-weight="400" text-anchor="start">低</text><text x="974.0" y="724.0" fill="#14233C" font-family="Noto Sans CJK SC, sans-serif" font-size="13" font-weight="400" text-anchor="start">打开详情</text><text x="264" y="828" fill="#536581" font-family="Noto Sans CJK SC, sans-serif" font-size="12" font-weight="400" text-anchor="start">模板区默认收起；载入后才成为用户记录，不混入统计。</text><rect x="264" y="869" width="180" height="36" rx="6" fill="#FFFFFF" stroke="#6B7E94" stroke-width="1"/><text x="354.0" y="892.0" fill="#14233C" font-family="Noto Sans CJK SC, sans-serif" font-size="13" font-weight="500" text-anchor="middle">展开示例模板</text><rect x="1160" y="359" width="416" height="585" rx="10" fill="#FFFFFF" stroke="#CBD5E1" stroke-width="1"/><text x="1180" y="391" fill="#14233C" font-family="Noto Sans CJK SC, sans-serif" font-size="17" font-weight="600" text-anchor="start">示例科技 A / 当前观察</text><text x="1182" y="443" fill="#14233C" font-family="Noto Sans CJK SC, sans-serif" font-size="16" font-weight="600" text-anchor="start">当前假设</text><text x="1182" y="473" fill="#536581" font-family="Noto Sans CJK SC, sans-serif" font-size="14" font-weight="400" text-anchor="start">订单兑现带来经营改善，仍需现金流验证。</text><text x="1182" y="518" fill="#14233C" font-family="Noto Sans CJK SC, sans-serif" font-size="16" font-weight="600" text-anchor="start">验证条件</text><text x="1182" y="548" fill="#536581" font-family="Noto Sans CJK SC, sans-serif" font-size="14" font-weight="400" text-anchor="start">核对正式财报与已有公司指引。</text><text x="1182" y="593" fill="#14233C" font-family="Noto Sans CJK SC, sans-serif" font-size="16" font-weight="600" text-anchor="start">风险条件</text><text x="1182" y="623" fill="#536581" font-family="Noto Sans CJK SC, sans-serif" font-size="14" font-weight="400" text-anchor="start">应收持续上升或主要客户需求转弱。</text><rect x="1182" y="772" width="372" height="42" rx="6" fill="#EAF0F8" stroke="#865700" stroke-width="0.75"/><circle cx="1199" cy="793.0" r="3" fill="#865700" opacity="1"/><text x="1213" y="798.0" fill="#865700" font-family="Noto Sans CJK SC, sans-serif" font-size="13" font-weight="400" text-anchor="start">确认提醒，不会修改投资假设。</text><rect x="1182" y="839" width="170" height="36" rx="6" fill="#005CBF"/><text x="1267.0" y="862.0" fill="#FFFFFF" font-family="Noto Sans CJK SC, sans-serif" font-size="13" font-weight="500" text-anchor="middle">开始复盘</text><rect x="1364" y="839" width="170" height="36" rx="6" fill="#FFFFFF" stroke="#6B7E94" stroke-width="1"/><text x="1449.0" y="862.0" fill="#14233C" font-family="Noto Sans CJK SC, sans-serif" font-size="13" font-weight="500" text-anchor="middle">更多操作</text><text x="1182" y="912" fill="#005CBF" font-family="Noto Sans CJK SC, sans-serif" font-size="12" font-weight="400" text-anchor="start">确认提醒 / 暂缓 7 天 / 忽略</text></svg>